<svg width="70" height="70" viewBox="0 0 70 70" fill="none" xmlns="http://www.w3.org/2000/svg">
<rect width="70" height="70" rx="35" fill="#F8F8F8"/>
<path d="M35.5 59.875C48.9619 59.875 59.875 48.9619 59.875 35.5C59.875 22.0381 48.9619 11.125 35.5 11.125C22.0381 11.125 11.125 22.0381 11.125 35.5C11.125 48.9619 22.0381 59.875 35.5 59.875Z" fill="#7F8494" stroke="#7F8494" stroke-width="3" stroke-miterlimit="10"/>
<path d="M29.2 36.602C27.9 36.602 26.8513 36.1427 26.054 35.224C25.2567 34.3053 24.858 33.1007 24.858 31.61C24.858 30.1193 25.2567 28.9147 26.054 27.996C26.8513 27.0773 27.9 26.618 29.2 26.618C30.5 26.618 31.5487 27.0773 32.346 27.996C33.1607 28.8973 33.568 30.102 33.568 31.61C33.568 33.118 33.1607 34.3313 32.346 35.25C31.5487 36.1513 30.5 36.602 29.2 36.602ZM40.12 26.8H42.668L30.24 45H27.692L40.12 26.8ZM29.2 34.782C29.9107 34.782 30.4567 34.5047 30.838 33.95C31.2367 33.3953 31.436 32.6153 31.436 31.61C31.436 30.6047 31.2367 29.8247 30.838 29.27C30.4567 28.7153 29.9107 28.438 29.2 28.438C28.524 28.438 27.978 28.724 27.562 29.296C27.1633 29.8507 26.964 30.622 26.964 31.61C26.964 32.598 27.1633 33.378 27.562 33.95C27.978 34.5047 28.524 34.782 29.2 34.782ZM41.134 45.182C39.834 45.182 38.7853 44.7227 37.988 43.804C37.1907 42.8853 36.792 41.6807 36.792 40.19C36.792 38.6993 37.1907 37.4947 37.988 36.576C38.7853 35.6573 39.834 35.198 41.134 35.198C42.434 35.198 43.4827 35.6573 44.28 36.576C45.0947 37.4947 45.502 38.6993 45.502 40.19C45.502 41.6807 45.0947 42.8853 44.28 43.804C43.4827 44.7227 42.434 45.182 41.134 45.182ZM41.134 43.362C41.8273 43.362 42.3733 43.0847 42.772 42.53C43.1707 41.958 43.37 41.178 43.37 40.19C43.37 39.202 43.1707 38.4307 42.772 37.876C42.3733 37.304 41.8273 37.018 41.134 37.018C40.4407 37.018 39.8947 37.2953 39.496 37.85C39.0973 38.4047 38.898 39.1847 38.898 40.19C38.898 41.1953 39.0973 41.9753 39.496 42.53C39.8947 43.0847 40.4407 43.362 41.134 43.362Z" fill="#F8F8F8"/>
</svg>
