<svg width="70" height="70" viewBox="0 0 70 70" fill="none" xmlns="http://www.w3.org/2000/svg">
<rect width="70" height="70" rx="35" fill="#F8F8F8"/>
<path d="M35 60C48.8072 60 60.0001 48.8071 60.0001 35C60.0001 21.1929 48.8072 10 35 10C21.1929 10 10 21.1929 10 35C10 48.8071 21.1929 60 35 60Z" fill="#7F8494"/>
<path d="M37.665 37.307V37.303C37.4922 37.315 36.5999 37.3673 34.6143 37.3673C33.0267 37.3673 31.9134 37.3231 31.5195 37.303V37.307C25.4142 37.0377 20.8603 35.9766 20.8603 34.7025C20.8603 33.4324 25.4182 32.3673 31.5195 32.098V36.2499C31.9174 36.278 33.0629 36.3464 34.6425 36.3464C36.5396 36.3464 37.4881 36.266 37.665 36.2499V32.102C43.7582 32.3753 48.3 33.4364 48.3 34.7065C48.3 35.9766 43.7542 37.0377 37.665 37.311V37.307ZM37.665 31.6719V27.9581H46.1658V22.2949H23.0227V27.9581H31.5235V31.6719C24.6143 31.9895 19.4214 33.356 19.4214 34.9959C19.4214 36.6358 24.6183 38.0023 31.5235 38.3239V50.229H37.669V38.3239C44.5661 38.0063 49.751 36.6398 49.751 34.9999C49.751 33.364 44.5661 31.9935 37.669 31.6759" fill="white"/>
</svg>
