<svg width="70" height="70" viewBox="0 0 70 70" fill="none" xmlns="http://www.w3.org/2000/svg">
<rect width="70" height="70" rx="35" fill="#F8F8F8"/>
<path d="M35.5 59.875C48.9619 59.875 59.875 48.9619 59.875 35.5C59.875 22.0381 48.9619 11.125 35.5 11.125C22.0381 11.125 11.125 22.0381 11.125 35.5C11.125 48.9619 22.0381 59.875 35.5 59.875Z" fill="#7F8494" stroke="#7F8494" stroke-width="3" stroke-miterlimit="10"/>
<path d="M35.5 40C39.6421 40 43 36.6421 43 32.5C43 28.3579 39.6421 25 35.5 25C31.3579 25 28 28.3579 28 32.5C28 36.6421 31.3579 40 35.5 40Z" stroke="#F8F8F8" stroke-width="2" stroke-miterlimit="10"/>
<path d="M24 47C25.0794 44.8937 26.7251 43.1249 28.7548 41.8894C30.7844 40.6539 33.119 40 35.5 40C37.881 40 40.2155 40.6539 42.2452 41.8894C44.2749 43.1248 45.9206 44.8936 47 47" stroke="#F8F8F8" stroke-width="2" stroke-linecap="round" stroke-linejoin="round"/>
</svg>
