<svg width="437" height="401" viewBox="0 0 437 401" fill="none" xmlns="http://www.w3.org/2000/svg">
<circle opacity="0.9" cx="218.5" cy="240.5" r="156.5" stroke="#F2F2F2" stroke-width="8"/>
<circle opacity="0.9" cx="218.5" cy="240.5" r="119.5" stroke="#F2F2F2" stroke-width="16"/>
<rect x="297" y="232" width="130" height="130" rx="65" fill="url(#paint0_linear_19_1785)"/>
<path fill-rule="evenodd" clip-rule="evenodd" d="M381.847 285.362C377.843 278.628 370.528 274.511 362.166 274.511C349.508 274.511 339.637 284.255 339.637 297C339.637 309.745 349.508 320.469 362.166 320.469C370.528 320.469 377.843 315.568 381.847 308.834H393.32C388.579 321.401 376.312 330.333 362.166 330.333C343.882 330.333 328.667 315.41 328.667 297C328.667 278.59 343.882 263.667 362.166 263.667C376.312 263.667 388.579 272.795 393.32 285.362H381.847V285.362ZM399.003 293.079L387.444 301.314H372.941C371.252 305.673 367.024 308.765 362.072 308.765C355.633 308.765 350.414 303.541 350.414 297.098C350.414 290.655 355.633 285.431 362.072 285.431C367.098 285.431 371.382 288.616 373.018 293.079H399.003Z" fill="#EFF2F9"/>
<rect x="297" y="232" width="130" height="130" rx="65" stroke="white" stroke-width="20"/>
<rect x="10" y="232" width="130" height="130" rx="65" fill="url(#paint1_linear_19_1785)"/>
<path d="M109.493 303.825L103.919 282.542C102.291 276.323 97.0449 271.882 90.8626 271.12C90.345 271.056 89.8458 271.336 89.6391 271.815L87.4629 276.858C86.5609 279.055 84.4451 280.474 82.0694 280.474H67.9305C65.5505 280.474 63.4317 279.05 62.5321 276.847L60.4838 271.823C60.285 271.335 59.784 271.044 59.2607 271.105C53.019 271.823 47.7184 276.289 46.0813 282.542L40.5072 303.825C39.3484 308.246 40.1967 312.924 42.8322 316.658C46.2786 321.541 53.5682 321.439 56.8797 316.47L61.0895 310.156C62.5235 308.005 64.9376 306.713 67.5227 306.713H82.4771C85.0623 306.713 87.4765 308.005 88.9104 310.156L93.1201 316.47C96.4506 321.468 103.751 321.5 107.168 316.658C109.803 312.924 110.652 308.246 109.493 303.825ZM57.9453 290.678C55.6143 290.678 53.7181 288.782 53.7181 286.451C53.7181 284.12 55.6143 282.223 57.9453 282.223C60.2762 282.223 62.1725 284.12 62.1725 286.451C62.1725 288.782 60.2761 290.678 57.9453 290.678ZM69.7524 298.695H67.5659V300.882C67.5659 301.526 67.0438 302.048 66.3998 302.048C65.7558 302.048 65.2336 301.526 65.2336 300.882V298.695H63.0471C62.4031 298.695 61.881 298.173 61.881 297.529C61.881 296.885 62.4031 296.363 63.0471 296.363H65.2336V294.176C65.2336 293.532 65.7558 293.01 66.3998 293.01C67.0438 293.01 67.5659 293.532 67.5659 294.176V296.363H69.7524C70.3964 296.363 70.9185 296.885 70.9185 297.529C70.9185 298.173 70.3964 298.695 69.7524 298.695ZM83.8918 301.756C81.5608 301.756 79.6645 299.86 79.6645 297.529C79.6645 295.198 81.5608 293.302 83.8918 293.302C86.2227 293.302 88.119 295.198 88.119 297.529C88.119 299.86 86.2226 301.756 83.8918 301.756ZM88.7034 287.617C88.0594 287.617 87.5365 287.095 87.5365 286.451C87.5365 285.81 88.0537 285.285 88.7034 285.285C89.3474 285.285 89.8695 285.807 89.8695 286.451C89.8695 287.095 89.3475 287.617 88.7034 287.617ZM92.056 290.969C91.412 290.969 90.8892 290.447 90.8892 289.803C90.8892 289.163 91.4063 288.637 92.056 288.637C92.7 288.637 93.2222 289.159 93.2222 289.803C93.2222 290.447 92.7002 290.969 92.056 290.969ZM92.056 284.264C91.412 284.264 90.8892 283.742 90.8892 283.098C90.8892 282.458 91.4063 281.932 92.056 281.932C92.7 281.932 93.2222 282.454 93.2222 283.098C93.2222 283.742 92.7002 284.264 92.056 284.264ZM95.4059 287.617C94.7619 287.617 94.2398 287.095 94.2398 286.451C94.2398 285.807 94.7619 285.285 95.4059 285.285C96.0499 285.285 96.5728 285.807 96.5728 286.451C96.5728 287.091 96.0554 287.617 95.4059 287.617ZM64.6917 275.966L63.3219 272.606C63.0092 271.839 63.5735 271 64.4017 271H85.6774C86.5159 271 87.0803 271.858 86.7482 272.628L85.3174 275.944C84.7022 277.394 83.4107 278.142 82.0695 278.142H67.9306C66.5025 278.142 65.2312 277.288 64.6917 275.966Z" fill="#EFF2F9"/>
<rect x="10" y="232" width="130" height="130" rx="65" stroke="white" stroke-width="20"/>
<rect x="129" y="10" width="180" height="180" rx="90" fill="#181A1F" stroke="white" stroke-width="20"/>
<path d="M181.714 81.4933L212.206 114.953L220.014 123.539L246.25 94.5267L246.351 128.559H258.715L258.615 58.286L247.995 71.0215L220.416 104.867L192.352 70.9914L181.714 58.286V81.4933Z" fill="#EFF2F9"/>
<path d="M181.714 145.003L181.714 102.391L200.915 123.49L181.714 145.003Z" fill="#EFF2F9"/>
<defs>
<linearGradient id="paint0_linear_19_1785" x1="307" y1="297" x2="417" y2="297" gradientUnits="userSpaceOnUse">
<stop stop-color="#4776E6"/>
<stop offset="1" stop-color="#8E54E9"/>
</linearGradient>
<linearGradient id="paint1_linear_19_1785" x1="20" y1="297" x2="130" y2="297" gradientUnits="userSpaceOnUse">
<stop stop-color="#4776E6"/>
<stop offset="1" stop-color="#8E54E9"/>
</linearGradient>
</defs>
</svg>
