<svg width="55" height="50" viewBox="0 0 55 50" fill="none" xmlns="http://www.w3.org/2000/svg">
<path d="M34.9465 18.1311V30.6785C34.9465 30.8394 34.8869 30.9801 34.7676 31.1008C34.6682 31.2214 34.539 31.2817 34.38 31.2817H31.9353V17.5279H34.38C34.539 17.5279 34.6682 17.5882 34.7676 17.7089C34.8869 17.8295 34.9465 17.9703 34.9465 18.1311Z" fill="#CBCBCB"/>
<path fill-rule="evenodd" clip-rule="evenodd" d="M9.97998 41.9162V9.37305L26.848 7.99997V7.98401L26.9461 7.99199L27.0441 7.98401V7.99997L43.9122 9.37305V41.9162L34.3013 40.3287L27.0441 41.8744V41.9162L26.9461 41.8953L26.848 41.9162V41.8744L19.5908 40.3287L9.97998 41.9162ZM22.1862 27.9639V30.9801C22.1862 31.141 22.1265 31.2817 22.0073 31.4024C21.9079 31.523 21.7787 31.5833 21.6197 31.5833H19.7415C19.5825 31.5833 19.4434 31.523 19.3241 31.4024C19.2247 31.2817 19.175 31.141 19.175 30.9801V17.8295C19.175 17.6686 19.2247 17.5279 19.3241 17.4072C19.4434 17.2866 19.5825 17.2263 19.7415 17.2263H21.6197C21.7787 17.2263 21.9079 17.2866 22.0073 17.4072C22.1265 17.5279 22.1862 17.6686 22.1862 17.8295V20.1821H26.1513V18.3423C26.1513 15.688 24.9191 14.3609 22.4545 14.3609H18.698C16.2335 14.3609 15.0012 15.688 15.0012 18.3423V30.4975C15.0012 33.1518 16.2335 34.4789 18.698 34.4789H22.4545C24.9191 34.4789 26.1513 33.1518 26.1513 30.4975V27.9639H22.1862ZM39.1203 18.6439C39.1203 15.9896 37.8881 14.6625 35.4235 14.6625H27.7615V34.1773H35.4235C37.8881 34.1773 39.1203 32.8502 39.1203 30.1959V18.6439Z" fill="#CBCBCB"/>
</svg>
