<svg width="56" height="50" viewBox="0 0 56 50" fill="none" xmlns="http://www.w3.org/2000/svg">
<path fill-rule="evenodd" clip-rule="evenodd" d="M31.6726 13.7825H30.6037V13.5925C30.8969 13.5978 31.0823 13.5345 30.9526 13.272C30.7542 12.8776 31.6103 12.8987 31.7361 12.9845C31.9605 13.1348 31.8127 13.5714 31.6726 13.7825ZM30.2107 14.0463H31.5065C31.3625 14.2679 30.9591 15.0144 30.6984 15.0157C30.5933 14.8667 30.2483 14.3826 30.2107 14.0463ZM34.42 12.4608C34.3629 12.4898 34.298 12.5189 34.2059 12.536C33.7986 13.123 34.0438 13.0544 33.3251 13.5437C33.3264 14.5264 33.355 14.6332 33.5807 15.5038C33.5872 15.5249 33.5833 15.5447 33.5729 15.5631C33.5612 15.5816 33.5457 15.5935 33.5249 15.5974C33.3511 15.6357 33.1007 15.7003 32.9568 15.728C32.9606 15.7597 33.0294 16.3163 32.9516 16.7305C32.8309 17.3807 31.3081 18.8053 30.9436 18.8778C30.4403 18.9781 29.8786 18.527 28.9991 18.1339C28.7578 18.0257 27.9445 17.4823 27.519 17.3385C27.1662 17.2185 26.8121 18.093 27.2505 18.3265C27.4542 18.4359 27.7798 18.5837 27.8822 18.8541C28.1871 19.6573 27.8342 22.757 27.2064 23.3809C26.9081 23.3783 26.6577 23.1 26.4359 23.1725C26.0403 23.3928 26.2906 24.6221 26.4359 24.8358C28.8694 27.3815 28.5801 29.2663 29.6127 30.6737C30.0848 30.6737 29.7748 31.1815 30.1328 31.7777C30.2275 32.0837 30.1043 32.6034 30.0537 32.8013C30.0537 33.0572 30.0537 33.313 30.0537 33.5689C30.0278 33.6494 30.0018 33.7285 29.9746 33.809C29.9746 34.0332 29.9746 34.2561 29.9746 34.4804C29.9019 34.8075 29.8228 35.2467 29.7553 35.5527C29.6101 36.1964 30.1678 36.6976 29.8332 37.311C29.8332 37.6882 29.8345 37.613 29.6127 37.919C29.6127 38.5047 29.4778 39.7393 29.6127 40.1745C29.7074 40.4779 30.7892 41.7626 31.0603 41.8866C31.7141 42.1821 32.6779 42.1187 32.3652 43.166C30.4519 43.7635 29.23 42.8284 28.2091 42.8139L28.1624 42.9919C27.5087 42.9932 26.9872 42.8297 26.8445 42.7822C26.8432 42.6028 27.0559 41.2258 27.1273 41.0068C27.2012 40.8894 27.2739 40.772 27.3478 40.6546C27.4269 40.4199 27.2674 38.7012 27.2531 38.2395C26.8458 37.9348 26.7667 37.0063 26.7667 36.4958C26.6486 36.1014 26.6486 35.6332 26.624 35.1201C26.6136 34.88 26.4722 34.5265 26.5617 34.2245C26.6227 34.0187 26.851 33.929 26.9081 33.7602C26.9081 33.5689 26.9081 33.3764 26.9081 33.1851C27.0157 32.5797 26.982 32.3 26.624 31.9373C25.7289 31.9492 25.6057 31.9927 25.1141 31.2171C24.961 30.9771 23.7093 28.9682 23.5886 28.9141C22.547 28.4525 22.7545 28.6319 22.2992 27.8115C22.2798 27.8115 22.0022 27.9051 21.7583 28.2784C21.3847 28.8442 20.7258 30.6843 20.5377 31.3293C20.4326 31.6893 20.5377 32.0877 20.3794 32.3858C20.2653 32.6008 19.8943 32.6707 19.8139 32.8171C19.4481 33.4858 19.7218 33.4331 19.0265 33.9053C18.902 34.0688 18.8981 34.3142 18.8073 34.512C18.7541 34.5872 18.7022 34.6624 18.649 34.7363C18.5323 34.9921 18.7735 35.4564 18.7281 35.616C18.6075 36.0355 18.4492 36.4576 18.2884 36.848C17.9693 37.617 18.0108 38.6379 17.6891 39.1101C17.5283 39.3475 17.1378 39.1154 16.8408 39.3106C16.8239 39.4754 16.3517 40.5729 16.2583 40.8789C16.2583 41.4592 16.2583 42.0409 16.2583 42.6213C16.3478 42.9154 16.5917 43.1951 16.5191 43.567C16.4412 43.9627 15.087 43.9574 14.3515 43.8493C13.8599 43.7767 13.712 43.4087 13.7198 42.9814C13.7301 42.4788 14.7303 39.2077 14.6693 38.9914C13.9105 38.1208 14.873 37.2265 15.1583 36.4153C15.2958 36.021 15.2115 35.4696 15.362 35.1043C15.6292 34.6083 15.8964 34.1124 16.1636 33.6164C16.6527 33.1482 16.4347 33.1244 16.6994 32.705C16.929 32.3409 17.2066 32.0956 17.0457 31.5377C16.7214 30.4152 17.4232 28.8245 17.4699 27.6505C17.3454 27.5173 16.9225 27.5595 16.8693 27.2021C16.7629 26.4727 17.1417 25.1827 17.3752 25.06C17.479 25.0059 17.5983 25.0534 17.6904 24.9954C17.6904 24.4493 17.156 21.4077 17.562 21.2533C17.8123 21.1584 18.387 21.1083 18.4985 21.0568C18.492 20.9275 18.4038 20.6506 18.2988 20.636C18.1198 20.611 17.754 20.5411 17.4621 20.4725C16.5683 20.2628 17.3959 16.6777 17.4063 16.6632C17.6528 16.3321 18.7943 16.7779 18.9331 16.2147C19.3145 15.7201 18.6386 13.8155 19.941 11.4703C20.3807 10.6775 21.2226 9.87821 22.2045 10.2172C22.534 10.3306 22.3343 10.8121 22.9128 10.2977C22.9271 9.99692 22.7896 9.74499 22.7078 9.49702C21.7466 6.58069 25.0038 4.9992 27.2855 6.66642C27.5411 6.77194 27.6916 6.82339 27.8822 6.9698C28.0081 7.63062 28.6528 8.80586 28.0094 9.57748C27.7447 9.63419 27.423 9.78456 27.222 9.92965C27.2181 10.1961 27.2531 10.4414 27.3011 10.601C27.3439 10.7448 27.4256 10.8015 27.2142 10.8886C27.187 10.8991 27.1986 10.9888 27.2129 11.0231C27.746 11.1286 28.3129 10.9229 28.6696 10.7765H29.0938V10.2317H29.2974V9.80567H29.4998V10.543H30.0303V10.7765H37.8925V11.1919H38.2401V9.67245H38.5333V10.9084H39.2026V11.614H41.2846V11.4043H41.6309V11.4953H42.6142V12.0836H41.6309V12.1759H41.2846V11.9662H39.2026V12.1759C38.8965 12.1759 38.5916 12.1759 38.2855 12.1759V12.0335H37.8925V12.4608H34.42Z" fill="#CBCBCB"/>
</svg>
