<svg width="56" height="50" viewBox="0 0 56 50" fill="none" xmlns="http://www.w3.org/2000/svg">
<path d="M44.785 7.98401H40.5739L38.8203 8.86075L37.0668 7.98401H28.813L26.8248 8.97812H21.3295L19.3413 7.98401H10.8528V23.956L11.8469 25.9442V31.4395L10.8528 33.4277V41.9162H27.8189L29.5724 41.0395L31.326 41.9162H44.785V28.4572L43.9082 26.7036L44.785 24.9501V7.98401ZM19.7997 35.9516L16.8174 32.9692V27.0046L25.7644 35.9516H19.7997ZM37.8262 35.9516H33.8498L31.2727 32.9232L30.7413 30.7648L28.6957 29.8949L27.8189 28.8646L16.8174 15.9369L18.8056 13.9487L27.8189 20.7235L38.8203 28.9928L37.8262 35.9516ZM38.8203 22.8956L29.8734 13.9487H35.838L38.8203 16.931V22.8956Z" fill="#CBCBCB"/>
</svg>
