<svg width="56" height="51" viewBox="0 0 56 51" fill="none" xmlns="http://www.w3.org/2000/svg">
<path fill-rule="evenodd" clip-rule="evenodd" d="M44.4636 18.8467H40.2729L33.1985 32.8146H36.8021L37.9419 30.3695H42.6253L42.9296 32.8146H46.6447L44.4636 18.8467ZM41.6398 22.4282L42.2654 27.4556H39.2874L41.5627 22.4282H41.6398Z" fill="#CBCBCB"/>
<path d="M20.6991 18.8685H10.6124L8.22144 32.8188H11.975L12.8663 27.5349H18.0082L18.5181 24.484H13.3976L13.8347 21.9194H20.1893L20.6991 18.8685Z" fill="#CBCBCB"/>
<path d="M25.7466 18.8685H22.0101L19.6192 32.8188H23.3556L25.7466 18.8685Z" fill="#CBCBCB"/>
<path d="M27.0581 18.8685H37.1448L36.6349 21.9194H30.2846L29.8476 24.484H34.968L34.4582 27.5349H29.3206L28.4292 32.8188H24.6757L27.0581 18.8685Z" fill="#CBCBCB"/>
</svg>
