<svg width="55" height="51" viewBox="0 0 55 51" fill="none" xmlns="http://www.w3.org/2000/svg">
<path fill-rule="evenodd" clip-rule="evenodd" d="M38.4108 9.86475H41.9834L43.8427 21.4897H40.6756L40.4163 19.4547H36.4237L35.4521 21.4897H32.38L38.4108 9.86475ZM40.1094 17.0296L39.5761 12.8455H39.5104L37.5707 17.0296H40.1094Z" fill="#CBCBCB"/>
<path d="M13.1259 9.88229H21.7247L21.2901 12.4214H15.8729L15.5003 14.5558H19.8654L19.4308 17.095H15.0473L14.2875 21.4925H11.0876L13.1259 9.88229Z" fill="#CBCBCB"/>
<path d="M22.8426 9.88283H26.0278L23.9896 21.493H20.8043L22.8426 9.88283Z" fill="#CBCBCB"/>
<path d="M35.7437 9.88283H27.1449L25.114 21.493H28.3138L29.0737 17.0955H33.4534L33.8881 14.5563H29.523L29.8955 12.422H35.3091L35.7437 9.88283Z" fill="#CBCBCB"/>
<path fill-rule="evenodd" clip-rule="evenodd" d="M31.4634 35.6285H29.918L31.5823 26.0174L27.9079 25.9632V26.0391L20.1807 36.0408L19.9862 38.449H25.8761L25.2925 41.8009H28.8481L29.4317 38.449H30.9771L31.4634 35.6285ZM26.3624 35.6285L23.6823 35.6068L27.3135 30.7253L26.3624 35.6285Z" fill="#CBCBCB"/>
</svg>
