<svg width="56" height="51" viewBox="0 0 56 51" fill="none" xmlns="http://www.w3.org/2000/svg">
<path fill-rule="evenodd" clip-rule="evenodd" d="M26.6496 10.503C25.4658 12.5007 24.4797 14.1491 24.4582 14.1659C24.399 14.2125 23.859 14.442 22.8178 14.8633L21.8757 15.2445L19.6046 14.2806C18.3555 13.7505 17.3294 13.3223 17.3244 13.3291C17.3194 13.3359 17.6258 14.448 18.0053 15.8003C18.3847 17.1525 18.6959 18.289 18.6967 18.3258C18.6976 18.3626 18.6218 18.5109 18.5283 18.6553C18.0286 19.4274 17.5818 20.3497 17.4175 20.9482C17.3711 21.1172 17.319 21.2901 17.3016 21.3324C17.2813 21.3818 15.9483 22.1482 13.5625 23.4822C11.5234 24.6223 9.85498 25.5653 9.85498 25.5777C9.85498 25.5901 11.4852 26.5407 13.4777 27.6903L17.1004 29.7804L17.1467 29.936C17.3235 30.5297 17.9204 31.856 18.2116 32.3017L18.3941 32.5813L17.591 34.8627C17.1493 36.1175 16.7986 37.1548 16.8117 37.1677C16.8247 37.1807 17.9427 36.9282 19.2961 36.6067L21.7567 36.0223L22.5062 36.5181C23.4513 37.1433 24.1561 37.5644 24.6486 37.7981L25.0336 37.9809L26.8524 41.3739C27.8528 43.2401 28.6837 44.7794 28.6988 44.7947C28.7139 44.81 29.6509 43.2765 30.7811 41.3869C32.7746 38.0537 32.8405 37.9494 32.991 37.8889C33.6641 37.6184 35.499 36.7245 35.8914 36.4759L36.102 36.3424L38.5318 36.9841C39.8682 37.337 40.9616 37.6098 40.9616 37.5904C40.9616 37.5709 40.63 36.4761 40.2247 35.1576C39.8193 33.839 39.4877 32.734 39.4877 32.7019C39.4877 32.6698 39.651 32.3719 39.8506 32.0398C40.432 31.0725 40.5318 30.8961 40.8874 30.2068L41.2244 29.5537L41.956 29.1107C42.3584 28.8671 43.8356 27.9779 45.2387 27.1348C46.6417 26.2917 47.785 25.5882 47.7792 25.5716C47.7734 25.5548 47.1315 25.1583 46.3529 24.6904C42.7046 22.498 42.1338 22.1553 41.4203 21.7293L40.6572 21.2736L40.5912 21.0725C40.3993 20.4874 39.8949 19.5969 39.3566 18.8929C39.1778 18.6591 39.0513 18.4572 39.0556 18.4126C39.0597 18.3704 39.348 17.3072 39.6964 16.05C40.0447 14.7928 40.3261 13.7595 40.3217 13.7538C40.3172 13.748 39.2201 14.0804 37.8836 14.4922L35.4536 15.2411L35.0562 14.9624C34.229 14.3823 33.4258 13.9404 33.088 13.8794C32.9541 13.8552 32.9239 13.8068 30.8965 10.3627C29.7659 8.44207 28.8321 6.87061 28.8215 6.87061C28.8108 6.87061 27.8335 8.50519 26.6496 10.503ZM30.3728 17.9328C30.505 18.0638 30.5492 18.0774 31.9826 18.4277C33.6799 18.8423 33.4445 18.7223 34.1756 19.5459C35.3138 20.8282 36.0684 21.9332 36.1695 22.4657C36.1836 22.5396 36.2369 22.7644 36.288 22.9651C36.8384 25.1263 36.8024 27.2785 36.1878 28.9512C35.8074 29.9866 35.1734 30.9229 34.3873 31.6105C33.387 32.4853 31.7593 33.2681 30.4045 33.5261C29.4069 33.716 27.5985 33.773 26.6107 33.6456C25.4271 33.4929 24.4599 33.1546 23.8264 32.6719C23.6013 32.5003 23.3133 32.2103 23.3144 32.1563C23.3147 32.1405 24.2528 31.7924 25.3992 31.3826C28.0412 30.4381 28.4562 30.2745 29.5002 29.7657C31.2601 28.908 32.2262 28.0957 32.3876 27.3382C32.4072 27.2467 32.4875 27.0076 32.5662 26.8068C33.2761 24.9956 33.0515 23.1442 31.9517 21.74C31.8459 21.6049 31.7165 21.3888 31.6639 21.2597C31.6115 21.1306 31.554 21.01 31.5362 20.9916C31.5181 20.9728 31.4175 20.9788 31.3054 21.0054C31.1553 21.0411 31.065 21.0422 30.9348 21.0097C30.5831 20.9219 30.0053 20.8873 29.5716 20.9277C28.6066 21.0179 27.7889 21.3679 26.9875 22.0339C26.723 22.2538 26.6568 22.3337 26.5485 22.5643C26.3497 22.9874 26.258 23.3576 26.2351 23.8295C26.2103 24.341 26.2743 24.6564 26.4822 25.0483C26.8089 25.6641 27.3125 25.9664 27.6014 25.7203C27.7527 25.5913 27.7614 25.3864 27.6425 24.7462C27.5143 24.0561 27.5139 24.066 27.6676 24.0115C27.9388 23.9152 28.3111 23.8498 28.5903 23.8493C29.9572 23.8466 30.7501 24.9644 30.8628 27.0528L30.8883 27.5247L30.6548 27.7173C30.0739 28.1961 29.1889 28.6741 28.5415 28.8586C27.4613 29.1665 26.4526 29.0645 25.4647 28.5474C25.3784 28.5022 25.0898 28.2423 24.8232 27.9698C23.5035 26.6206 22.6427 25.245 22.405 24.1054C22.339 23.7887 22.3255 23.1486 22.38 22.9161C22.4016 22.8239 22.3935 22.5377 22.3577 22.1302C22.3027 21.5049 22.3031 21.4879 22.3773 21.4301C22.4191 21.3975 22.6251 21.2224 22.8351 21.0412C23.045 20.8599 23.5495 20.4269 23.9562 20.079L24.6955 19.4464L26.2446 18.5494C27.0965 18.0561 27.8063 17.6456 27.8217 17.6371C27.8372 17.6287 28.0932 17.6692 28.3908 17.7271L28.9317 17.8324L29.4099 17.6175L29.8881 17.4026L30.0625 17.6003C30.1584 17.709 30.298 17.8586 30.3728 17.9328Z" fill="#CBCBCB"/>
</svg>
