<svg width="56" height="50" viewBox="0 0 56 50" fill="none" xmlns="http://www.w3.org/2000/svg">
<path d="M45.4557 7.99576C45.3876 8.02316 45.3241 8.11396 45.3082 8.207C45.29 8.31262 45.2131 8.42595 45.1539 8.43437C45.1288 8.43795 45.0601 8.41691 45.0013 8.38761C44.4856 8.13078 43.5192 8.16921 42.9843 8.46782C42.0588 8.9845 41.8306 10.2534 42.4164 11.6266C42.6661 12.2119 42.9492 12.6565 43.8302 13.8474C44.5607 14.8347 44.8165 15.2248 45.0622 15.7255C45.2959 16.2019 45.4561 16.7739 45.4065 16.955C45.3043 17.328 44.7996 17.4992 44.3869 17.3009C44.2636 17.2417 44.1848 17.1771 43.9371 16.9326C43.4508 16.4523 43.0536 15.9298 42.7516 15.3728C42.4814 14.8748 42.3933 14.7605 42.2219 14.686C42.1083 14.6366 42.04 14.6505 41.9647 14.7384C41.9109 14.8013 41.909 14.8116 41.9203 14.9939C41.9304 15.1594 41.9914 15.388 42.3949 16.7729C42.6496 17.6468 42.8753 18.3856 42.8965 18.4145C42.9527 18.4911 43.0677 18.5618 43.1361 18.5618C43.2307 18.5618 43.3198 18.4718 43.3601 18.3353C43.3859 18.2482 43.4213 18.1903 43.49 18.1228C43.5797 18.0347 43.5891 18.0306 43.6778 18.0426C43.7291 18.0495 43.9263 18.112 44.116 18.1817C44.7299 18.4069 45.1255 18.4774 45.5422 18.4357C45.8022 18.4097 45.9938 18.3568 46.2076 18.2519C46.7291 17.9962 47.1456 17.589 47.3666 17.1189C47.5046 16.8254 47.5327 16.6819 47.5332 16.2677C47.5337 15.8511 47.501 15.6568 47.3615 15.2468C47.0986 14.4738 46.7298 13.88 45.6296 12.4583C44.7982 11.3838 44.5206 10.976 44.2473 10.4273C44.04 10.0111 43.9363 9.71839 43.9571 9.60895C44.003 9.36904 44.3879 9.22962 44.7101 9.33623C44.8622 9.38652 45.0337 9.56763 45.4247 10.0906C45.9892 10.8457 46.2085 11.0835 46.4465 11.1987C46.5907 11.2685 46.6459 11.2685 46.7337 11.1986C46.8015 11.1446 46.8163 10.9367 46.7648 10.7615C46.7148 10.5912 45.8392 8.25946 45.7888 8.16246C45.7211 8.03212 45.5626 7.95277 45.4557 7.99576Z" fill="#CBCBCB"/>
<path fill-rule="evenodd" clip-rule="evenodd" d="M31.4956 8.23961C29.4855 8.57341 27.9733 10.8048 27.9733 13.437C27.9733 14.4481 28.1988 15.4311 28.6251 16.2783C29.3014 17.6221 30.349 18.4598 31.5756 18.6373C31.8638 18.679 32.318 18.669 32.5981 18.6146C33.0324 18.5304 33.5311 18.3147 33.9262 18.0402C34.1906 17.8565 34.6695 17.3893 34.8781 17.1115C35.8936 15.7591 36.2721 13.8816 35.8969 12.0587C35.745 11.3208 35.4522 10.6047 35.0663 10.0274C34.3947 9.02273 33.5188 8.41129 32.5046 8.23917C32.2704 8.19941 31.7363 8.19964 31.4956 8.23961ZM32.3305 9.62926C32.4994 9.71019 32.7431 9.93934 32.8884 10.1541C33.2354 10.6665 33.4956 11.4754 33.6197 12.4267C33.6743 12.8457 33.6744 14 33.6198 14.4367C33.4413 15.865 32.9457 16.94 32.3278 17.2389C32.2002 17.3006 32.1623 17.309 32.0106 17.3093C31.8604 17.3095 31.8194 17.3008 31.6919 17.2415C30.7341 16.7956 30.1313 14.5064 30.4046 12.3531C30.5892 10.8988 31.1443 9.79272 31.7954 9.58192C31.9382 9.53571 32.1798 9.55707 32.3305 9.62926Z" fill="#CBCBCB"/>
<path d="M7.35034 8.67305C7.35034 8.51385 7.35649 8.47906 7.38781 8.46113C7.41245 8.44703 8.04341 8.43945 9.22798 8.43903C10.8388 8.43846 11.0342 8.44191 11.0643 8.47146C11.0893 8.496 11.0979 8.54783 11.0979 8.6721C11.0979 8.94539 11.0422 9.02533 10.7768 9.13291C10.6891 9.16844 10.5774 9.22056 10.5285 9.2487L10.5061 9.26125C10.4866 9.272 10.4699 9.28122 10.4555 9.29318C10.3695 9.36506 10.3695 9.53591 10.3698 10.7317L10.3698 12.4794H12.2972V10.9902C12.2972 10.0803 12.289 9.47298 12.2762 9.42905C12.2445 9.32061 12.1578 9.24632 11.9778 9.17357C11.7463 9.07999 11.6383 9.01406 11.6013 8.94374C11.5609 8.86689 11.5559 8.50185 11.5948 8.46365C11.6143 8.44441 12.051 8.43839 13.4294 8.43839C15.0826 8.43839 15.2417 8.44139 15.2775 8.47323C15.3091 8.50135 15.3167 8.53997 15.3167 8.67384C15.3167 8.95273 15.2548 9.03226 14.9433 9.15358C14.7415 9.23221 14.6633 9.28342 14.6203 9.36526C14.5922 9.41866 14.589 10.1361 14.5938 15.3538L14.5993 21.2817L14.6902 21.361C14.7435 21.4074 14.8456 21.4636 14.9365 21.4965C15.2552 21.6119 15.3167 21.6893 15.3167 21.9756C15.3167 22.085 15.3069 22.162 15.291 22.1776C15.2537 22.2143 11.632 22.2143 11.5948 22.1776C11.5785 22.1617 11.5691 22.0815 11.5691 21.9598C11.5691 21.7947 11.576 21.7569 11.6175 21.6956C11.6648 21.626 11.6988 21.606 12.0501 21.4414C12.132 21.403 12.2188 21.3448 12.2428 21.3121C12.2863 21.253 12.2865 21.2383 12.292 17.6869L12.2975 14.121H10.3698V21.2285L10.4183 21.3C10.4661 21.3705 10.5407 21.4143 10.8453 21.5506C11.0449 21.6399 11.0827 21.6975 11.094 21.9301C11.0995 22.0439 11.0936 22.1294 11.0782 22.1577L11.0536 22.2029H9.22768C7.83606 22.2029 7.39563 22.1969 7.37605 22.1776C7.3598 22.1617 7.35034 22.0815 7.35034 21.9598C7.35034 21.6698 7.36213 21.6571 7.82605 21.4457C7.91583 21.4048 7.98821 21.3549 8.01879 21.3127L8.06773 21.2453L8.07383 15.3838C8.07721 12.16 8.07432 9.49132 8.06743 9.45346C8.04709 9.34159 7.94554 9.24897 7.76186 9.17469C7.38952 9.02416 7.35034 8.97639 7.35034 8.67305Z" fill="#CBCBCB"/>
<path d="M15.6712 8.48519C15.6323 8.53982 15.6261 8.76405 15.6602 8.88471C15.6891 8.98702 15.7948 9.07066 15.9874 9.14354C16.192 9.22098 16.2765 9.27306 16.3253 9.35171C16.3647 9.41523 16.3658 9.5295 16.3659 13.424C16.366 17.3604 16.3653 17.432 16.3242 17.4973C16.2772 17.572 16.1936 17.6224 15.9572 17.7183C15.6988 17.8231 15.6379 17.91 15.6379 18.1738L15.6376 18.1895C15.6372 18.1982 15.6366 18.2066 15.6358 18.2146C15.6349 18.2238 15.6337 18.2329 15.6327 18.2413L15.6322 18.2449C15.6282 18.2765 15.625 18.3022 15.6336 18.3232C15.6723 18.417 15.9483 18.4167 17.4545 18.415H17.4623C17.6857 18.4148 17.9361 18.4145 18.2166 18.4145C19.5878 18.4145 20.7261 18.4083 20.746 18.4008C20.793 18.3831 21.8562 16.2852 21.9159 16.0925C22.0204 15.7552 21.854 15.5746 21.5604 15.7067C21.3587 15.7975 21.2082 15.961 20.8896 16.4356C20.4832 17.0411 20.3001 17.2173 20.0716 17.2224C20.0181 17.2237 19.601 17.2224 19.1446 17.2198L18.3148 17.2149V13.7422H19.0784C19.6228 13.7421 19.8162 13.7421 19.9401 13.833C20.0084 13.8832 20.0556 13.9609 20.1287 14.0815L20.1398 14.0999C20.2616 14.3004 20.3327 14.3844 20.4177 14.428C20.4982 14.4694 20.722 14.4672 20.7652 14.4247C20.795 14.3954 20.7989 14.255 20.7989 13.1981L20.7989 12.978C20.7994 12.1335 20.7994 11.9546 20.7264 11.9187C20.7167 11.914 20.7057 11.9117 20.6932 11.9108C20.6806 11.9098 20.6664 11.9102 20.6506 11.9106C20.6411 11.9108 20.6309 11.9111 20.6202 11.9111C20.4488 11.9111 20.3355 11.9772 20.2314 12.1381C19.9985 12.4977 19.9733 12.5291 19.8797 12.5778C19.7865 12.6262 19.7784 12.6267 19.0502 12.6267H18.3148V9.64281L18.8555 9.6277C19.1529 9.61939 19.5889 9.61627 19.8245 9.62077L19.868 9.62159C20.1342 9.62654 20.2689 9.62904 20.3756 9.68371C20.4846 9.73955 20.5646 9.84977 20.7262 10.0725L20.7523 10.1084C20.8772 10.2803 21.0279 10.4641 21.0872 10.5167C21.3586 10.7576 21.634 10.7727 21.6965 10.5502C21.743 10.3846 21.6916 10.2584 21.1173 9.12834C20.8526 8.60759 20.7888 8.4975 20.736 8.47064C20.68 8.44223 20.378 8.43839 18.1885 8.43839H15.7046L15.6712 8.48519Z" fill="#CBCBCB"/>
<path fill-rule="evenodd" clip-rule="evenodd" d="M21.6556 8.68675C21.6555 8.51446 21.6613 8.47923 21.6929 8.46113C21.7175 8.44704 22.3207 8.43945 23.4462 8.43903C24.8883 8.4385 25.1917 8.44351 25.3488 8.47043C25.8523 8.55672 26.2712 8.78714 26.6837 9.20479C27.1235 9.65011 27.4135 10.2069 27.55 10.8681C27.6154 11.1849 27.62 11.9669 27.558 12.2478C27.3841 13.0366 27.0563 13.4892 26.3154 13.9636L26.2726 13.9908C26.1949 14.0399 26.1559 14.0646 26.1566 14.0882C26.1573 14.112 26.1987 14.1347 26.2818 14.1802L26.3272 14.2052C26.5034 14.3029 26.7844 14.5666 26.9519 14.7915C27.1386 15.0421 27.2741 15.2735 27.5378 15.7921C27.8251 16.357 27.9889 16.6505 28.1498 16.8886C28.4317 17.3057 28.7628 17.6232 29.1314 17.8297C29.4189 17.9908 29.5011 18.0584 29.5666 18.1876C29.6297 18.312 29.6358 18.3901 29.5893 18.4783C29.5193 18.6114 29.5026 18.6138 28.6069 18.6209C28.122 18.6247 27.7384 18.6186 27.6539 18.6057C27.2607 18.5456 26.8799 18.2234 26.4327 17.5726C26.2039 17.2398 26.0487 16.9777 25.5831 16.1382C24.9182 14.9392 24.6852 14.6056 24.4438 14.5064C24.4356 14.503 24.4279 14.4995 24.4206 14.4963C24.3981 14.486 24.3802 14.4779 24.3659 14.482C24.3105 14.498 24.3105 14.699 24.3109 15.6817L24.3109 15.9415C24.3109 17.1278 24.3162 17.3971 24.3408 17.4548C24.3796 17.5461 24.4788 17.6184 24.6642 17.6904C24.8647 17.7682 24.9668 17.8332 25.0063 17.9082C25.0527 17.9965 25.0521 18.3355 25.0054 18.3814C24.9754 18.4109 24.7962 18.4145 23.355 18.4145C22.2815 18.4145 21.7244 18.4072 21.6969 18.3927C21.6603 18.3735 21.6555 18.3471 21.6556 18.1665C21.6557 17.8679 21.697 17.8161 22.0391 17.6865C22.2264 17.6156 22.3269 17.5303 22.3596 17.4145C22.3933 17.2955 22.3933 9.55742 22.3596 9.43836C22.3269 9.32261 22.2264 9.23729 22.0391 9.16635C21.6971 9.03683 21.6557 8.98497 21.6556 8.68675ZM25.5866 11.1745C25.4709 10.395 25.144 9.61721 24.8609 9.44754C24.7088 9.35641 24.4486 9.43605 24.3623 9.60012C24.3373 9.64756 24.3323 9.96354 24.3324 11.5049C24.3325 13.3022 24.3336 13.3546 24.3744 13.4203C24.4544 13.5494 24.713 13.6315 24.8373 13.5673C24.9814 13.493 25.1737 13.2419 25.306 12.9552C25.5699 12.3837 25.671 11.7422 25.5866 11.1745Z" fill="#CBCBCB"/>
<path d="M35.7356 8.47308C35.7059 8.50228 35.701 8.54336 35.7071 8.71426C35.7142 8.91601 35.7158 8.92174 35.7872 8.99405C35.8343 9.04181 35.9334 9.09831 36.068 9.15411C36.2675 9.23687 36.3559 9.30078 36.4077 9.39989C36.4252 9.4334 36.4317 10.5222 36.4317 13.4152L36.4318 14.0571C36.432 17.3095 36.432 17.4702 36.3506 17.5427C36.3466 17.5463 36.3424 17.5496 36.338 17.5531L36.3368 17.554C36.3313 17.5584 36.3255 17.563 36.3193 17.5686C36.2898 17.5954 36.1946 17.6456 36.1077 17.6803C35.7502 17.8232 35.7036 17.8794 35.7036 18.1689C35.7036 18.304 35.7119 18.3565 35.7373 18.3814C35.7675 18.4111 36.0277 18.4145 38.2815 18.4145C40.2568 18.4145 40.7997 18.4089 40.8277 18.3882C40.8617 18.363 41.853 16.4068 41.9376 16.1981C42.0429 15.9379 42.033 15.7738 41.9075 15.6986C41.8132 15.6421 41.7495 15.6468 41.5974 15.7215C41.4007 15.8182 41.2544 15.9795 40.9395 16.4471C40.6289 16.9083 40.4839 17.0804 40.3317 17.1682C40.3234 17.173 40.3163 17.1774 40.3097 17.1815L40.3047 17.1846C40.2997 17.1877 40.295 17.1905 40.2902 17.1932L40.2872 17.1948C40.2243 17.2284 40.1424 17.2278 39.362 17.2219L38.3805 17.2149V13.7422L39.0818 13.7423C39.5031 13.7423 39.8153 13.7512 39.8637 13.7644C39.9745 13.7946 40.0906 13.9111 40.2085 14.1105C40.3284 14.3131 40.3647 14.357 40.4598 14.4139C40.5429 14.4637 40.7735 14.4757 40.8175 14.4325C40.8369 14.4134 40.8432 14.1067 40.8432 13.1809V11.9547L40.7968 11.9303C40.7685 11.9154 40.7009 11.9103 40.6231 11.9172C40.4532 11.9324 40.3725 11.9979 40.2217 12.2432C40.1567 12.3489 40.0748 12.4654 40.0397 12.5021C39.9223 12.6247 39.9072 12.6267 39.1093 12.6267H38.3805V9.64292L39.0799 9.6273C39.9162 9.60861 40.2879 9.61903 40.3957 9.66418C40.5069 9.71071 40.6019 9.81259 40.8135 10.112C41.1001 10.5178 41.3373 10.7114 41.5476 10.7114C41.6208 10.7114 41.6518 10.6987 41.7042 10.6472C41.7669 10.5855 41.7692 10.5771 41.7591 10.442C41.7462 10.2677 41.721 10.2098 41.2531 9.2794C41.051 8.87745 40.8625 8.52927 40.8315 8.50067L40.7755 8.44892L38.2735 8.4434C35.9588 8.43829 35.7688 8.44053 35.7356 8.47308Z" fill="#CBCBCB"/>
<path fill-rule="evenodd" clip-rule="evenodd" d="M20.2579 21.842C20.213 21.8684 20.2046 21.9198 20.2046 22.168C20.2046 22.6025 20.2515 22.6599 20.7904 22.8843C21.0518 22.9932 21.1965 23.1288 21.2254 23.292C21.2352 23.3473 21.2393 27.2493 21.2345 31.9631L21.2258 40.5335L21.1629 40.6204C21.102 40.7044 21.0056 40.7607 20.5561 40.975C20.2539 41.119 20.2046 41.2024 20.2046 41.5691C20.2046 41.7704 20.2166 41.863 20.2459 41.8875C20.2763 41.913 22.3112 41.92 27.9509 41.9144L35.6145 41.9066V41.5626C35.6145 41.2256 35.6127 41.2166 35.5271 41.1265C35.479 41.0759 35.3635 41.0024 35.2704 40.9631C34.8913 40.8032 34.7344 40.708 34.6712 40.5995L34.6086 40.4919L34.5997 31.973C34.5948 27.2876 34.5996 23.3919 34.6103 23.3158C34.6352 23.1394 34.7945 22.9787 35.0343 22.8882C35.5622 22.689 35.6295 22.6079 35.6297 22.1712C35.6298 21.9073 35.6229 21.8688 35.5708 21.8406C35.4892 21.7965 20.333 21.7979 20.2579 21.842ZM25.4937 22.7261C25.544 22.7568 25.6874 22.8224 25.8125 22.8717C26.1094 22.9889 26.2582 23.1288 26.2845 23.3158C26.2952 23.3919 26.3 27.2876 26.2951 31.973C26.2863 40.4465 26.2859 40.4925 26.2249 40.5973C26.1629 40.7037 26.0843 40.7519 25.6006 40.98C25.4064 41.0717 25.3654 41.0815 25.3263 41.0462C25.301 41.0233 25.1842 40.9664 25.0669 40.9197C24.7397 40.7894 24.5815 40.678 24.5291 40.5409C24.5119 40.496 24.4996 37.0862 24.4978 31.878C24.4948 23.4046 24.4956 23.2876 24.5545 23.1718C24.6034 23.0756 24.6581 23.0329 24.8558 22.9361C24.9886 22.8711 25.1591 22.7862 25.2345 22.7475C25.2466 22.7414 25.2576 22.7357 25.2679 22.7304C25.3426 22.6918 25.3734 22.6759 25.4019 22.6792C25.4162 22.6809 25.4298 22.6873 25.4481 22.698C25.4606 22.7054 25.4752 22.7148 25.4937 22.7261ZM30.5274 22.7145C30.5621 22.739 30.698 22.8021 30.8294 22.8548C30.9608 22.9074 31.1071 22.9784 31.1546 23.0125C31.1681 23.0222 31.1806 23.0276 31.1921 23.0326L31.202 23.037L31.2102 23.041C31.3324 23.107 31.3324 23.4026 31.3316 30.0294L31.3315 31.8878C31.3315 40.0042 31.3283 40.5289 31.2791 40.6004C31.1963 40.7205 31.1171 40.7758 30.9047 40.8621C30.7957 40.9063 30.6482 40.9751 30.577 41.0149L30.4474 41.0873L30.3179 41.0149C30.2466 40.9751 30.0976 40.9062 29.9867 40.8617C29.7674 40.7738 29.6059 40.6376 29.5705 40.5109C29.5582 40.4666 29.5481 36.5692 29.5481 31.85C29.5481 23.7646 29.5512 23.264 29.601 23.1721C29.671 23.0429 29.7776 22.9701 30.0654 22.8548C30.1968 22.8021 30.3327 22.739 30.3674 22.7145C30.4021 22.6899 30.4381 22.6699 30.4474 22.6699C30.4567 22.6699 30.4927 22.6899 30.5274 22.7145Z" fill="#CBCBCB"/>
</svg>
