<svg width="56" height="50" viewBox="0 0 56 50" fill="none" xmlns="http://www.w3.org/2000/svg">
<path fill-rule="evenodd" clip-rule="evenodd" d="M14.862 9.26022C15.2799 9.96219 16.1296 11.3851 16.7502 12.4225L17.8784 14.3085L17.877 24.8843L17.8757 35.4601L15.8914 38.5964C14.8001 40.3213 13.9071 41.774 13.9071 41.8244C13.9071 41.8796 18.6414 41.9162 25.7673 41.9162H37.6275L40.7411 37.6872L43.8546 33.4582L35.6611 33.4326L27.4676 33.407V20.6955V7.98401H20.7848H14.1019L14.862 9.26022ZM24.7555 23.4987V36.2108H31.5438C35.2774 36.2108 38.3176 36.2493 38.2998 36.2964C38.2821 36.3434 37.8317 36.9738 37.299 37.6973L36.3303 39.0125L27.6346 39.0129L18.9389 39.0134L19.0815 38.7382C19.16 38.5868 19.5315 37.99 19.9071 37.4119L20.5901 36.3609L20.5903 24.9159L20.5905 13.4709L19.8156 12.1819C19.3894 11.473 19.0407 10.869 19.0407 10.8398C19.0407 10.8106 20.3265 10.7867 21.8981 10.7867H24.7555V23.4987ZM30.2012 12.4878L30.2281 13.9122L30.9546 14.1341C34.6653 15.268 37.6862 18.1865 39.006 21.9124C39.8815 24.384 39.9992 27.2692 39.323 29.6804C39.1954 30.1358 39.0909 30.5302 39.0909 30.5569C39.0909 30.6492 41.8886 30.6052 41.9443 30.5121C41.975 30.4606 42.0893 29.999 42.1983 29.4861C42.4521 28.2911 42.5529 25.6213 42.3922 24.3495C41.6381 18.385 37.6495 13.4244 32.0961 11.5444C31.547 11.3586 30.89 11.1743 30.636 11.1349L30.1743 11.0633L30.2012 12.4878ZM14.7046 18.1186C13.9152 19.4103 13.3047 20.8828 12.9096 22.4477C12.5261 23.9671 12.4239 25.0329 12.4828 26.8984C12.538 28.6459 12.71 29.703 13.1788 31.1754C13.4729 32.099 14.5739 34.4311 14.918 34.8595L15.1593 35.1598L15.1628 26.3264C15.1647 21.4681 15.1484 17.493 15.1266 17.493C15.1047 17.493 14.9147 17.7746 14.7046 18.1186Z" fill="#CBCBCB"/>
</svg>
