<svg width="56" height="50" viewBox="0 0 56 50" fill="none" xmlns="http://www.w3.org/2000/svg">
<path d="M27.5654 5.98804C17.0924 5.98804 8.60327 14.4779 8.60327 24.9501C8.60327 35.4224 17.0924 43.9123 27.5654 43.9123C38.0384 43.9123 46.5275 35.4224 46.5275 24.9501C46.5275 14.4779 38.0384 5.98804 27.5654 5.98804ZM26.7917 7.8265C27.812 7.8173 29.3788 7.83492 30.4784 8.00328C32.2377 8.27265 32.9138 8.58804 35.1242 9.44105C37.3346 10.2941 38.4866 11.6656 39.9752 12.9451C41.4639 14.2246 43.2006 17.7254 43.6066 18.5784C44.0126 19.4314 44.78 23.0449 44.8026 24.1448C44.8251 25.2448 44.6216 27.4895 44.396 28.7017C44.1705 29.9139 43.1752 32.0908 42.5211 33.3254C41.867 34.56 40.4489 36.3345 40.4489 36.3345C40.4489 36.3345 40.8306 35.2132 40.966 34.3153C41.1013 33.4174 40.8537 31.6659 40.2673 30.6109C39.6809 29.5558 38.2154 27.6018 36.2531 26.659C34.2908 25.7162 32.2828 25.9423 29.5311 26.1444C26.7793 26.3464 24.8627 26.3217 23.3064 25.783C21.7501 25.2442 21.14 23.5146 21.0723 22.7738C21.0047 22.0331 21.1868 21.6992 21.5026 21.1829C21.8183 20.6666 21.5708 20.5324 21.4355 20.4876C21.3001 20.4427 21.1411 20.1267 21.096 19.588C21.0509 19.0492 21.1394 18.1305 21.1394 18.1305C21.1394 18.1305 21.3216 18.4886 21.4118 19.6783C21.502 20.868 23.0126 21.2929 23.5314 21.2929C24.0502 21.2929 24.998 21.3613 26.3062 20.3736C27.6144 19.3859 28.8527 20.3972 29.4166 20.5543C29.9805 20.7115 31.6044 21.8541 32.7322 23.1785C33.86 24.5029 34.2671 24.1454 35.1242 24.2352C35.9813 24.325 35.9159 24.5938 36.9083 24.6162C37.9007 24.6387 38.4635 23.7638 38.4635 23.7638C38.4635 23.7638 39.1153 26.6135 39.3634 27.5114C39.6115 28.4093 40.8312 30.4532 42.3198 30.5205C43.8085 30.5879 44.0329 29.0396 44.0329 29.0396C44.0329 29.0396 43.3799 29.7551 42.4777 29.6877C41.5755 29.6204 41.1909 28.7017 41.1909 28.7017C41.1909 28.7017 42.0712 28.9728 42.3869 28.9728C42.7027 28.9728 43.3348 28.7707 43.8987 28.3442C44.4626 27.9177 45.0045 26.141 44.1474 25.6023C43.2903 25.0635 42.7698 25.3783 42.7698 25.3783C42.7698 25.3783 43.041 25.4485 43.3343 25.673C43.6275 25.8974 43.7408 25.9395 43.7408 26.6354C43.7408 27.3313 43.5372 28.0507 42.5448 28.0732C41.5524 28.0956 40.719 27.6921 40.3581 26.7493C39.9972 25.8065 39.7485 24.7526 39.32 23.6302C38.8915 22.5078 37.9227 21.8114 37.9227 21.8114C37.9227 21.8114 38.1229 21.831 38.7319 21.831C39.3409 21.831 39.2766 22.8446 39.2766 22.8446C39.2766 22.8446 39.7937 22.7087 39.9515 22.5067C40.1094 22.3047 40.0186 21.5403 40.0186 21.5403C40.0186 21.5403 40.1754 21.6071 40.3107 21.2929C40.4461 20.9786 39.9307 20.868 40.3818 20.464C40.8329 20.0599 40.6524 20.1508 40.3818 19.7019C40.1111 19.2529 40.2465 19.474 40.6976 19.474C41.1487 19.474 41.1019 19.3405 40.4252 18.3977C39.7485 17.4549 39.2067 17.7703 38.7556 17.9498C38.3045 18.1294 37.5376 17.7708 36.8609 17.4117C36.1843 17.0525 36.2762 17.0525 35.8702 17.0974C35.4642 17.1423 35.0582 17.0503 34.6071 16.736C34.156 16.4217 34.3793 16.603 33.6124 15.75C32.8455 14.897 34.9229 14.9879 34.9229 14.9879C34.9229 14.9879 34.6505 13.7735 33.7032 13.0551C32.7559 12.3368 31.5402 12.6073 31.5402 12.6073C31.5402 12.6073 31.4043 11.6628 31.1336 11.3934C30.8629 11.1241 30.1835 11.0792 29.4166 11.0792H27.7943C26.6666 11.0792 27.1622 10.8115 27.3878 10.4074C27.6133 10.0034 26.9367 10.0017 26.4404 10.7649C25.9442 11.5281 25.6307 10.8575 25.2247 10.5881C24.8187 10.3188 24.8605 10.9911 23.7327 10.0932C22.6049 9.19525 23.7327 8.16378 24.68 8.07399C25.6273 7.9842 25.8089 9.10321 25.8089 9.10321C25.8089 9.10321 26.1258 8.52182 25.9905 8.20755C25.8551 7.89328 25.7655 7.84614 25.7655 7.84614C25.7655 7.84614 26.1796 7.83203 26.7917 7.8265ZM22.1538 8.70252C22.1538 8.70252 21.7512 9.55441 22.3828 10.0932C23.0143 10.6319 23.5551 11.0792 23.5551 11.0792C23.5551 11.0792 21.8849 10.7666 21.1631 10.7217C20.4413 10.6768 19.538 10.5415 20.0342 10.0028C20.5304 9.46406 20.5767 9.41748 20.8473 9.41748C21.118 9.41748 21.6604 9.73175 21.6604 9.73175C21.6604 9.73175 21.7027 9.28336 21.5223 9.19356C21.3419 9.10377 21.1197 9.01679 21.1197 9.01679L22.1538 8.70252ZM18.8185 10.2267C18.8185 10.2267 18.6826 10.9888 19.675 11.3031C20.6675 11.6174 21.3881 11.9316 21.3881 11.9316C21.3881 11.9316 18.3646 11.9788 17.4173 12.6073C16.4699 13.2358 15.7499 13.8183 15.4792 14.3122C15.2085 14.806 14.8477 15.6602 14.5319 15.75C14.2161 15.8398 13.9906 15.9756 13.9003 15.6164C13.8476 15.4063 13.6705 15.196 13.5333 15.2196C13.4837 15.2893 13.4357 15.3613 13.3872 15.4318C13.3714 15.5027 13.3596 15.5884 13.3596 15.7028C13.3596 16.5109 14.0819 17.0974 14.0819 17.0974C14.0819 17.0974 13.3145 17.9476 13.0438 18.5312C12.7732 19.1149 12.4557 21.1823 12.4557 22.6639C12.4557 24.1454 12.3666 25.7151 12.0057 26.164C11.6448 26.613 11.7351 26.8402 11.3742 26.93L10.6518 27.1068C10.6518 27.1068 11.2394 27.8257 12.0965 27.8257C12.9536 27.8257 13.628 26.93 13.628 26.93C13.628 26.93 14.0791 28.3195 14.5753 29.0828C15.0715 29.846 15.8858 31.1019 15.8858 31.1019C15.8858 31.1019 15.7955 32.4959 15.8858 33.3489C15.976 34.202 15.795 35.0999 14.8477 34.606C13.9003 34.1122 13.9438 34.7385 14.5753 35.1874C15.2069 35.6364 15.976 35.7744 16.5173 35.4153C17.0586 35.0561 17.1928 34.514 17.2831 33.9303C17.3733 33.3467 17.3304 33.3046 17.6462 33.125C17.962 32.9454 18.726 33.4393 18.7711 34.3821C18.8162 35.3249 18.9082 35.2794 19.0435 35.5488C19.1788 35.8182 19.1348 35.9961 18.9093 36.2206C18.6837 36.445 18.9076 36.8053 19.2685 36.4013C19.6294 35.9972 19.8115 35.8176 19.8566 35.4585C19.9017 35.0993 20.125 34.7867 20.125 34.7867C20.125 34.7867 21.1625 35.2329 22.0196 35.2778C22.8767 35.3227 24.3665 36.2228 24.4116 37.2105C24.4567 38.1982 23.5985 38.5574 22.0196 38.7818C20.4408 39.0063 18.5484 38.6926 17.0147 37.9294C15.4809 37.1662 12.7709 34.652 11.7334 31.644C10.6958 28.6361 10.3817 26.3902 10.4269 25.4923C10.472 24.5944 10.5154 20.8237 11.7334 18.3545C12.3715 17.0608 12.8505 16.2126 13.3872 15.4318C13.4177 15.2949 13.4692 15.2307 13.5333 15.2196C13.9828 14.5883 14.4865 13.9779 15.1634 13.1887C16.7423 11.348 18.8185 10.2267 18.8185 10.2267ZM28.1654 14.0451C28.2176 14.0408 28.2683 14.043 28.3232 14.0451C29.2029 14.0787 29.1832 14.379 29.8824 14.7718C30.5816 15.1646 31.0547 15.5025 31.0547 15.5025C31.0547 15.5025 30.2641 15.672 29.61 15.3689C28.9559 15.0659 28.4371 14.819 28.1101 14.819C27.783 14.819 26.9023 14.8504 26.9023 14.8504C26.9023 14.8504 27.3811 14.1098 28.1654 14.0451ZM29.5863 17.4156C29.9838 17.4125 30.4389 17.5 30.952 17.7259C33.2978 18.7585 33.0057 19.6317 34.4492 20.5072C35.8927 21.3827 36.4109 21.4736 36.4109 21.4736L36.4781 23.0449C36.4781 23.0449 34.7413 22.9994 32.8467 21.6975C30.952 20.3955 30.6154 19.79 29.8034 19.4308C28.9914 19.0717 27.4785 18.5784 27.4785 18.5784C27.4785 18.5784 28.1666 17.4267 29.5863 17.4156ZM36.036 18.3466C36.6965 18.3251 37.0425 18.9594 37.0425 18.9594C37.0425 18.9594 36.4561 18.9808 36.0952 19.093C35.7343 19.2052 35.4873 19.364 35.4873 19.364C35.4873 19.364 34.8749 18.667 35.732 18.3977C35.8392 18.364 35.9416 18.3497 36.036 18.3466ZM37.5043 22.2985C37.5241 22.2969 37.5431 22.2979 37.5635 22.2985C37.6615 22.3013 37.7662 22.3256 37.8635 22.381C38.123 22.5288 38.2376 22.8169 38.1201 23.0213C38.0025 23.2258 37.6967 23.2712 37.4372 23.1235C37.1777 22.9757 37.0631 22.6915 37.1806 22.4871C37.2449 22.3753 37.366 22.3097 37.5043 22.2985Z" fill="#CBCBCB"/>
</svg>
