<svg width="56" height="51" viewBox="0 0 56 51" fill="none" xmlns="http://www.w3.org/2000/svg">
<path fill-rule="evenodd" clip-rule="evenodd" d="M19.2769 11.9671C19.4248 12.5748 19.8019 14.5685 20.115 16.3983L20.6845 19.7256L27.1039 19.5886L33.5228 19.4522L34.0991 16.5073C34.4156 14.8875 34.7951 12.9552 34.9416 12.2126C35.1902 10.9516 35.0979 10.8628 33.5433 10.8628C31.7722 10.8628 31.6746 11.0051 31.1011 14.4213C30.8672 15.8147 30.56 16.2618 29.8376 16.2618C29.0058 16.2618 28.8827 15.9138 28.8827 13.5623V10.8628H27.1732H25.4637V13.5623C25.4637 15.9031 25.3382 16.2618 24.5196 16.2618C23.5359 16.2618 23.2893 15.7661 22.7491 12.7034C22.4467 10.9894 22.307 10.8628 20.7162 10.8628C19.1909 10.8628 19.037 10.9811 19.2769 11.9671ZM21.0987 21.5382C21.1158 22.2803 21.7248 26.0906 22.4516 30.0049L23.7738 37.1218H27.1693H30.5653L30.9243 34.9131C31.1221 33.6983 31.3976 32.0973 31.5363 31.3546C31.7722 30.0932 31.6785 30.0049 30.0974 30.0049C28.5017 30.0049 28.3879 30.1158 28.0934 31.9682C27.7212 34.3074 26.6858 34.5499 26.2574 32.3976C25.7802 30.0005 25.8838 29.5141 26.8719 29.5141C27.413 29.5141 27.9132 29.0591 28.0866 28.4097C28.6287 26.3762 28.4495 26.0783 26.6848 26.0783C25.1111 26.0783 24.9753 25.9615 24.9753 24.6058C24.9753 23.1878 25.0569 23.1334 27.1732 23.1334C29.1919 23.1334 29.3711 23.2335 29.3711 24.3604C29.3711 25.3911 29.6012 25.5875 30.8076 25.5875C32.5293 25.5875 32.5996 25.4903 33.0421 22.5198L33.3894 20.1884H27.2289H21.0679L21.0987 21.5382ZM23.3293 38.9624C23.1676 39.5695 23.0319 40.2321 23.0284 40.4349C23.0245 40.6376 24.8898 40.803 27.1732 40.803C29.4566 40.803 31.3219 40.6376 31.318 40.4349C31.3146 40.2321 31.1788 39.5695 31.0171 38.9624C30.7461 37.9454 30.4413 37.858 27.1732 37.858C23.9052 37.858 23.6004 37.9454 23.3293 38.9624Z" fill="#CBCBCB"/>
<path d="M11.9549 27.0516C12.1815 27.056 12.8692 26.6624 13.4836 26.177C14.5938 25.2989 14.5953 25.2837 13.7029 23.6001C12.3647 21.0739 12.5014 20.6792 14.7184 20.6792C15.7929 20.6792 16.6721 20.7597 16.6721 20.8579C16.6721 20.9556 16.9007 22.2258 17.1805 23.6801L17.6885 26.3237L15.4286 28.3125L13.1686 30.3008L14.5338 33.098C15.8779 35.852 15.9307 35.8948 17.9947 35.8948C19.9875 35.8948 20.0911 35.8236 20.0911 34.4566C20.0911 33.3405 19.8459 32.9827 18.997 32.8615C17.2123 32.6053 17.3554 31.0454 19.3125 29.4242C21.3361 27.7481 21.3214 27.8575 20.2732 22.0992L19.4786 17.7343H14.4121H9.3457L11.9549 27.0516Z" fill="#CBCBCB"/>
<path d="M34.2989 20.1977C34.0097 21.5524 33.637 23.8269 33.4705 25.2513C33.1755 27.7721 33.2155 27.8845 34.9621 29.4252C36.2921 30.5988 36.677 31.2594 36.4499 31.979C36.2814 32.513 35.7436 32.9498 35.2547 32.9498C34.6408 32.9498 34.2998 33.4048 34.1514 34.4223C33.9389 35.8771 33.9633 35.8948 36.192 35.8948H38.4475L39.8195 33.0838L41.1915 30.2729L39.3111 28.6738C38.2766 27.7942 37.2402 27.0712 37.0082 27.0673C36.7766 27.0634 36.7341 26.0111 36.9139 24.7285C37.4668 20.7951 37.5449 20.6792 39.6608 20.6792C40.7173 20.6792 41.5818 20.7985 41.5818 20.9443C41.5818 21.0901 41.1222 22.1149 40.5605 23.2212L39.5387 25.2336L40.9268 26.3532L42.3144 27.4727L43.6346 24.9352L45.7594 17.7343H39.9128H34.8249L34.2989 20.1977Z" fill="#CBCBCB"/>
</svg>
