<svg width="55" height="51" viewBox="0 0 55 51" fill="none" xmlns="http://www.w3.org/2000/svg">
<path fill-rule="evenodd" clip-rule="evenodd" d="M10.0311 13.8778C9.61338 13.9156 9.31195 14.038 9.07163 14.2675C8.76748 14.558 8.77029 14.5379 8.76957 16.4401C8.76925 17.3823 8.75621 18.2007 8.74062 18.2588C8.71813 18.3425 8.69232 18.3578 8.61626 18.3322C8.43737 18.272 7.6907 18.2578 7.43971 18.3098C7.2944 18.3399 7.15473 18.4012 7.10547 18.4566C7.02164 18.5509 7.022 18.5515 7.14582 18.5287C7.29894 18.5006 7.3068 18.5499 7.16399 18.6433C7.06494 18.708 7.05449 18.7551 7.01923 19.2946C6.9648 20.1273 6.96616 20.143 7.10965 20.3307C7.28963 20.5661 7.46111 20.6232 8.00767 20.6295C8.26462 20.6324 8.5362 20.6479 8.61117 20.6638L8.74748 20.6928L8.78442 21.1686C8.84258 21.9177 8.75012 30.9089 8.6836 30.9754C8.65188 31.007 8.41793 31.0408 8.11922 31.0569C7.55639 31.0871 7.23888 31.1888 7.12069 31.3766C7.02955 31.5215 6.98365 32.384 7.04277 32.8422C7.11856 33.4297 7.24451 33.4975 8.26235 33.4993L8.86766 33.5004L8.83754 34.8266C8.78365 37.1962 8.89256 37.4932 9.86288 37.6225C10.6007 37.7208 13.0578 37.7752 16.9716 37.78C21.5038 37.7855 23.3136 37.7466 23.4843 37.6401C23.5792 37.5809 23.5963 37.5822 23.6478 37.6524C23.7255 37.7584 23.8099 37.6962 23.8099 37.5329C23.8099 37.4446 23.7869 37.3996 23.7418 37.3996C23.7043 37.3996 23.6736 37.3792 23.6736 37.3542C23.6736 37.2661 23.7437 37.3097 23.9075 37.4998C24.1057 37.7297 23.5538 37.6947 28.1265 37.7676C32.309 37.8344 34.131 37.7727 34.2882 37.5589C34.3606 37.4604 34.4541 37.4721 34.4212 37.5756C34.4033 37.632 34.4215 37.673 34.475 37.6967C34.61 37.7565 42.5586 37.7796 42.9916 37.7214C43.3142 37.6781 43.3721 37.6806 43.405 37.7394C43.4569 37.8319 44.3418 37.832 45.143 37.7394C46.0292 37.637 46.3869 37.4379 46.527 36.9689C46.5608 36.8556 46.5956 36.1745 46.6196 35.1553C46.6408 34.2576 46.6706 33.4911 46.6859 33.452C46.7098 33.3909 46.8011 33.3837 47.3367 33.4005C47.7272 33.4127 48.0319 33.4005 48.1529 33.3678C48.3525 33.3138 48.4151 33.2284 48.2552 33.2284C48.1405 33.2284 48.1381 33.1349 48.2502 33.0391C48.3508 32.9531 48.3986 32.6251 48.4038 31.9846C48.407 31.5952 48.3965 31.5402 48.2879 31.3765C48.1321 31.1415 48.0038 31.1035 47.2301 31.0628L46.5967 31.0294L46.5689 30.2814C46.5536 29.8699 46.5383 27.5287 46.5348 25.0787L46.5285 20.6241H47.2146C47.9912 20.6241 48.1049 20.5924 48.3144 20.3173L48.4417 20.1499L48.4145 19.5596C48.3783 18.7751 48.363 18.6896 48.254 18.6611C48.1326 18.6294 48.1403 18.5484 48.2665 18.5298C48.3667 18.5151 48.3663 18.5131 48.2433 18.4304C48.0456 18.2976 47.4577 18.2377 47.0389 18.308C46.5045 18.3976 46.5133 18.4201 46.4363 16.7703C46.3816 15.6003 46.2994 14.9609 46.1625 14.6436C45.9692 14.1952 45.7457 14.0927 44.9083 14.0687C44.5776 14.0592 44.2191 14.0321 44.1115 14.0084C43.4956 13.8727 42.5787 13.8565 37.7819 13.8964C35.1329 13.9185 31.3157 13.9285 29.2991 13.9185L25.6327 13.9003L25.5301 14.0152L25.4276 14.13L25.3084 14.0421C25.2023 13.9638 25.0828 13.9513 24.2156 13.9277C23.6801 13.9131 22.9383 13.9164 22.5671 13.9352C21.9873 13.9644 21.8818 13.9813 21.8186 14.0549C21.7324 14.1555 21.6289 14.1677 21.6289 14.0775C21.6289 14.0427 21.5931 13.9994 21.5494 13.9811C21.3819 13.9112 19.2613 13.8724 14.9042 13.8594C12.4177 13.852 10.2248 13.8603 10.0311 13.8778ZM26.6043 16.2538C34.9261 16.2666 42.0314 16.2595 42.3938 16.238C42.8783 16.2092 43.0887 16.2131 43.1889 16.2528C43.2639 16.2826 43.4714 16.3212 43.6501 16.3387L43.975 16.3705L44.002 17.0125C44.0561 18.3011 44.1172 24.409 44.13 29.8053L44.1431 35.3367L35.3055 35.3619C30.4449 35.3758 26.4239 35.4032 26.37 35.4228C26.3161 35.4423 26.2617 35.4973 26.2493 35.5449C26.2188 35.661 26.0364 35.662 26.0364 35.546C26.0364 35.4959 25.9941 35.4491 25.9341 35.4328C25.6928 35.3672 22.0332 35.3516 18.2474 35.4002C15.4482 35.4361 14.1469 35.4379 14.1149 35.4059C14.0419 35.3331 13.8961 35.3511 13.7276 35.4535C13.636 35.5093 13.5621 35.5293 13.5457 35.5029C13.499 35.4274 13.2327 35.3994 12.2577 35.3672C11.6752 35.3479 11.2997 35.3172 11.2687 35.2862C11.2404 35.258 11.2049 34.9616 11.1871 34.6063C11.1567 33.9986 11.1521 33.976 11.0534 33.962C10.9217 33.9433 10.9096 33.7486 11.0382 33.715C11.1055 33.6974 11.1331 33.6326 11.1608 33.4263C11.1804 33.2801 11.1975 30.2973 11.1988 26.7979C11.201 20.8385 11.1961 20.4319 11.1232 20.3787C11.062 20.334 11.0571 20.3099 11.1005 20.2666C11.1918 20.1755 11.2014 19.1903 11.1146 18.8001C11.0587 18.5486 11.0526 18.4329 11.089 18.3118C11.1151 18.2246 11.1492 17.7076 11.1646 17.1629L11.1927 16.1727L11.3332 16.2017C11.4105 16.2176 18.2825 16.2411 26.6043 16.2538ZM38.1687 18.4338L36.7835 18.4492L36.5163 18.7092C36.3694 18.8522 36.2104 19.0542 36.1632 19.158C36.0059 19.5033 35.9722 20.1824 36.015 22.143C36.0367 23.1404 36.0465 25.8132 36.0368 28.0824L36.019 32.2083L36.1829 32.4638C36.3916 32.7893 36.6695 33.0272 36.886 33.0657C37.227 33.1264 39.2608 33.1732 40.1014 33.1398C41.0734 33.101 41.1947 33.0681 41.4925 32.7619C41.5862 32.6656 41.7085 32.471 41.7643 32.3295C41.8642 32.0761 41.866 32.0341 41.883 29.5106C41.9021 26.6692 41.8513 24.6686 41.7548 24.4633L41.6946 24.3354L40.5009 24.35C39.4279 24.3631 39.2989 24.3728 39.2261 24.4454C39.1551 24.5162 39.1433 24.6321 39.1316 25.3749L39.1183 26.2235L39.3702 26.3579L39.6221 26.4924L39.6241 28.3075C39.6253 29.4647 39.6441 30.1966 39.6759 30.3267C39.7493 30.6268 39.7461 30.935 39.6686 31.0282C39.609 31.0999 39.5363 31.1061 38.9872 31.0862C38.3122 31.0618 38.1909 31.0351 38.2404 30.9216C38.3253 30.7271 38.3543 28.9753 38.3397 24.9257L38.3237 20.4994L38.6207 20.4714C38.7841 20.456 39.0853 20.4433 39.2901 20.4431C39.7645 20.4427 39.803 20.4848 39.8058 21.0083C39.8069 21.2085 39.8373 21.4538 39.8733 21.5536C39.9536 21.7761 39.954 21.7576 39.8688 21.7576C39.7568 21.7576 39.8091 21.9501 39.9401 22.0199C40.0794 22.094 41.4136 22.0709 41.5618 21.9918C41.6366 21.9519 41.6627 21.8785 41.689 21.6342C41.7439 21.1254 41.7889 19.1112 41.7473 19.0256C41.726 18.9817 41.6091 18.8674 41.4875 18.7714C41.0762 18.447 40.672 18.4059 38.1687 18.4338ZM22.4695 18.4985C22.3932 18.5236 22.1331 18.532 21.8788 18.5176C21.6289 18.5035 21.3985 18.509 21.3669 18.5298C21.2632 18.5978 21.22 18.8686 21.2209 19.445C21.222 20.1274 21.2807 20.5806 21.3771 20.651C21.4729 20.7208 21.4654 20.8355 21.3633 20.8622C21.2704 20.8864 21.2213 21.0895 21.2205 21.453C21.2202 21.5917 21.2417 21.6781 21.2803 21.6929C21.3266 21.7106 21.3324 21.776 21.305 21.9748C21.2358 22.4779 21.1664 26.8028 21.1842 29.5106C21.2049 32.6827 21.1847 32.5258 21.6219 32.9103L21.8788 33.1364L22.8103 33.1351C24.4935 33.1328 26.2593 33.0594 26.5589 32.9792C26.8383 32.9044 27.0395 32.7571 27.1499 32.5464C27.2466 32.3618 27.3061 31.7993 27.3602 30.5577C27.4261 29.0419 27.3872 19.0288 27.3145 18.8446C27.2612 18.7092 27.1523 18.679 27.1104 18.7879C27.0776 18.8732 26.9451 18.8777 26.9451 18.7934C26.9451 18.7591 26.9183 18.7088 26.8856 18.6818C26.799 18.61 25.542 18.5982 25.412 18.668C25.256 18.7517 25.1793 18.9459 25.1289 19.3846C25.0701 19.8973 25.0702 22.5886 25.1293 25.5385C25.1703 27.5868 25.1677 27.8545 25.1061 27.9224C25.0023 28.0368 25.0221 28.1982 25.1572 28.339C25.2444 28.4297 25.265 28.4807 25.2317 28.5228C25.147 28.63 25.1233 28.8353 25.081 29.8324C25.0378 30.8477 24.9888 31.1118 24.832 31.1719C24.789 31.1883 24.7148 31.1577 24.6497 31.0967C24.5051 30.9611 24.1644 30.9261 23.9321 31.023C23.7403 31.1029 23.5719 31.0665 23.5 30.9296C23.4731 30.8786 23.4733 29.7215 23.5005 27.833C23.5475 24.5642 23.5115 18.9114 23.4432 18.8293C23.3847 18.759 22.8571 18.5008 22.7194 18.4751C22.657 18.4634 22.5445 18.4739 22.4695 18.4985ZM29.5258 18.4858C29.2834 18.5024 29.0607 18.5403 29.031 18.5699C28.9437 18.657 28.8892 20.5816 28.9434 21.6648C28.9689 22.1749 28.9898 22.875 28.9898 23.2207C28.9898 23.5664 29.0099 23.8866 29.0344 23.9324C29.1023 24.059 29.0049 24.2911 28.8697 24.3249C28.8086 24.3403 28.7669 24.3758 28.777 24.404C28.7871 24.4322 28.7559 24.5339 28.7076 24.6299C28.5421 24.9588 28.5128 25.9697 28.6644 26.1209C28.6934 26.1499 28.7171 26.2056 28.7171 26.2446C28.7171 26.2836 28.7614 26.3968 28.8154 26.4962C28.9117 26.6734 28.9143 26.7303 28.9517 29.4426C28.9726 30.9637 28.9949 32.4123 29.0011 32.6617L29.0125 33.115L31.0834 33.1097C33.6146 33.1032 33.8723 33.0695 34.2246 32.6992C34.5519 32.3552 34.5858 31.9706 34.5694 28.7831C34.5542 25.7973 34.594 26.1136 34.1723 25.6328C34.0459 25.4886 33.9424 25.3425 33.9424 25.3082C33.9424 25.2738 34.0097 25.1786 34.0918 25.0966C34.3983 24.7908 34.4321 24.4361 34.4509 21.3193C34.4647 19.0358 34.4635 18.9975 34.3711 18.871C34.2431 18.6957 34.0231 18.5952 33.6463 18.54C33.2654 18.4841 30.1491 18.4432 29.5258 18.4858ZM14.4822 18.5341C14.0784 18.5545 13.9363 18.5778 13.9048 18.6288C13.8192 18.7672 13.8009 19.2329 13.8265 20.6172C13.8503 21.897 13.875 22.215 13.9373 22.041C13.9747 21.9366 14.0409 21.9829 14.0409 22.1134C14.0409 22.1844 14 22.2895 13.95 22.347C13.9001 22.4045 13.8571 22.4944 13.8546 22.5466C13.8521 22.5989 13.8368 23.145 13.8206 23.7601C13.7918 24.8473 13.788 24.8826 13.6818 25.0258C13.5392 25.2182 13.4727 25.8268 13.517 26.5338C13.5487 27.0411 13.5501 27.0458 13.6766 27.0934C13.7467 27.1198 13.8398 27.1959 13.8835 27.2624C13.9502 27.364 13.954 27.4028 13.9075 27.5048C13.8277 27.6795 13.7553 30.2843 13.7927 31.6349L13.8232 32.7391L13.9581 32.9386C14.0323 33.0484 14.1311 33.1584 14.1776 33.1832C14.2913 33.244 15.6268 33.241 15.8032 33.1797C16.1465 33.0602 16.177 32.8467 16.1738 30.5852C16.1723 29.5577 16.1542 28.4315 16.1335 28.0824C16.1025 27.5583 16.1072 27.4358 16.1605 27.3797C16.2129 27.3245 16.4366 27.3061 17.348 27.2821C18.822 27.2433 19.1429 27.1738 19.4879 26.8186L19.6375 26.6646L19.6449 22.8849C19.6523 19.1634 19.651 19.1028 19.5603 18.9466C19.4312 18.7242 19.2207 18.6369 18.6956 18.5877C18.132 18.5349 15.203 18.4976 14.4822 18.5341ZM31.9766 20.4832C32.1074 20.5018 32.2288 20.5313 32.2463 20.5488C32.2847 20.587 32.272 23.8281 32.2324 24.1065C32.191 24.3985 32.1027 24.437 31.6128 24.3767C31.2653 24.3339 31.2118 24.3155 31.1948 24.2328C31.0875 23.7109 31.0891 21.71 31.1976 20.6808L31.2227 20.4428L31.4807 20.4461C31.6226 20.4479 31.8458 20.4646 31.9766 20.4832ZM17.1959 20.5777L17.3124 20.6219V21.5225C17.3124 22.0178 17.3259 22.8849 17.3423 23.4493C17.3669 24.2907 17.3826 24.4615 17.4295 24.3975C17.5138 24.2825 17.5584 24.3608 17.5605 24.6272C17.5621 24.8382 17.5514 24.8649 17.4601 24.8778C17.3861 24.8883 17.3578 24.9227 17.3578 25.0025C17.3578 25.1093 17.3475 25.1127 17.0193 25.1127C16.3976 25.1127 16.0402 24.9791 16.0402 24.7468C16.0402 24.6951 16.0708 24.6222 16.1083 24.5848C16.1668 24.5265 16.1765 24.2379 16.1765 22.5508V20.5848L16.3014 20.5659C16.5539 20.5278 17.0826 20.5347 17.1959 20.5777ZM32.0535 26.5366C32.18 26.5893 32.211 26.6304 32.2329 26.7746C32.2474 26.8705 32.2648 27.8831 32.2716 29.0247C32.2823 30.8283 32.275 31.1066 32.2158 31.1471C32.1078 31.221 31.3249 31.1649 31.1848 31.0732C31.0712 30.999 31.0688 30.9873 31.1011 30.6731C31.1195 30.495 31.148 29.5159 31.1646 28.4973L31.1947 26.6452L31.3013 26.5591C31.4317 26.4537 31.8265 26.4419 32.0535 26.5366Z" fill="#CBCBCB"/>
</svg>
