<svg width="55" height="50" viewBox="0 0 55 50" fill="none" xmlns="http://www.w3.org/2000/svg">
<path fill-rule="evenodd" clip-rule="evenodd" d="M18.7575 8.633L16.1635 9.29608L17.5046 10.1291C18.3125 10.6308 19.1028 11.5105 19.493 12.3423L20.1403 13.7226H23.0912H26.0421V11.4714V9.22061L24.116 8.56852C21.836 7.79696 22.0383 7.79452 18.7575 8.633ZM31.2018 8.57677L29.4193 9.21694V11.9503V14.6836L30.4081 14.0504C31.1297 13.5881 31.9414 13.417 33.4131 13.417C35.4172 13.417 35.433 13.4097 36.0338 12.1871C36.3659 11.5105 37.2139 10.5706 37.9183 10.0979L39.1982 9.23864L36.4053 8.57769C33.06 7.78627 33.4033 7.78627 31.2018 8.57677ZM14.2726 15.2727C13.7289 15.6208 13.2838 16.1708 13.2838 16.495C13.2838 17.0465 13.5961 17.0838 18.2262 17.0838C22.3055 17.0838 23.289 17.1724 23.8571 17.5914C24.2361 17.8703 24.5952 18.0421 24.6552 17.9733C24.7157 17.9043 25.4902 17.126 26.3765 16.2435L27.9882 14.6393H21.6248C15.7552 14.6393 15.1845 14.6885 14.2726 15.2727ZM31.0899 14.873C30.8734 14.9965 30.3132 15.5444 29.8449 16.0907L28.9931 17.0838H33.7733C37.7014 17.0838 38.6766 17.1743 39.2421 17.5914C39.6211 17.8703 39.9802 18.0421 40.0403 17.9733C40.1007 17.9043 40.8752 17.126 41.7615 16.2435L43.3732 14.6393L37.4282 14.6438C34.1583 14.6466 31.3061 14.7496 31.0899 14.873ZM15.2554 19.452C18.6281 23.2609 23.0402 28.674 23.0402 29.0025C23.0402 29.6268 16.9117 29.2809 15.995 28.6053C15.2693 28.0699 15.2122 28.0962 13.6685 29.6748L12.0857 31.2928L19.1579 31.3796L26.2298 31.4663L27.0741 30.6749C28.6599 29.1889 28.2925 28.2264 24.3055 23.4228C22.3186 21.0287 20.4349 18.8292 20.1197 18.5353C19.6701 18.1157 18.9455 18.0005 16.7586 18.0005H13.9705L15.2554 19.452ZM28.3383 19.3582C28.1071 20.1047 27.9199 21.858 27.9221 23.2542C27.9251 25.2758 28.106 26.1076 28.8107 27.3402C29.9353 29.3072 31.8764 31.1134 33.4352 31.6439C35.2889 32.2746 38.0192 32.1639 39.5509 31.3961L40.8643 30.7376L38.9115 30.3745C37.8372 30.175 36.3771 29.6503 35.6664 29.2091C32.9647 27.5309 31.8153 23.6716 32.8971 19.9103L33.4465 18.0005H31.1023H28.7578L28.3383 19.3582ZM21.7666 18.6881C22.3895 19.5641 25.772 23.5008 25.9014 23.5008C25.9787 23.5008 26.0421 22.3106 26.0421 20.8561C26.0421 18.2474 26.032 18.2187 25.3055 18.7541C24.5693 19.2967 23.4154 19.2158 23.4154 18.6211C23.4154 18.4479 22.9832 18.3061 22.4552 18.3061C21.7921 18.3061 21.579 18.4243 21.7666 18.6881ZM34.26 19.1464C33.4881 20.7922 33.4052 23.9124 34.0889 25.5887C34.4416 26.4532 34.8863 27.2388 35.0765 27.3347C35.2829 27.4386 35.4233 25.6437 35.4233 22.9077C35.4233 18.3171 35.1156 17.3222 34.26 19.1464ZM20.0382 27.4221C20.0382 27.8291 20.2728 28.0843 20.6469 28.0843C21.1681 28.0843 21.1835 28.0073 20.7531 27.5496C20.4769 27.2553 20.203 26.9577 20.1444 26.8874C20.0859 26.8174 20.0382 27.0582 20.0382 27.4221ZM29.4193 35.5472C29.4193 38.5011 29.5075 40.9182 29.6152 40.9182C30.0629 40.9182 33.3328 38.2405 34.338 37.0506C35.6334 35.5176 35.8653 33.3737 34.7666 33.0907C32.7102 32.5612 31.1413 31.8431 30.3338 31.0615L29.4193 30.1765V35.5472ZM20.0382 34.225C20.0382 35.3168 20.2795 36.07 20.8461 36.746C21.8443 37.9368 25.3468 40.9182 25.748 40.9182C25.9097 40.9182 26.0421 39.0619 26.0421 36.793V32.6678H23.0402H20.0382V34.225Z" fill="#CBCBCB"/>
</svg>
