<svg width="56" height="51" viewBox="0 0 56 51" fill="none" xmlns="http://www.w3.org/2000/svg">
<path d="M21.3834 18.8895L22.0441 17.8486H15.6801L14.4372 19.8085C13.7536 20.8862 13.1722 21.8266 13.1454 21.8976C13.1184 21.9689 14.5358 22.027 16.2945 22.027H19.4924L19.7433 21.5936C19.8209 21.4594 19.8905 21.3261 19.9368 21.2267C19.9726 21.1496 19.9942 21.0927 19.9942 21.0714C19.9942 21.0223 19.0071 20.9825 17.8005 20.9825C16.5942 20.9825 15.6071 20.9286 15.6071 20.863C15.6071 20.4672 16.0479 20.3856 18.1854 20.3856H20.413L21.0376 19.4901H18.76C16.5186 19.4901 16.4849 19.4853 16.6646 19.1916C16.8343 18.9143 17.0067 18.8932 19.1153 18.8915L21.3834 18.8895Z" fill="#CBCBCB"/>
<path fill-rule="evenodd" clip-rule="evenodd" d="M24.0921 18.211C24.1187 18.1667 24.1424 18.1255 24.1624 18.0894C24.1816 18.0547 24.1974 18.0246 24.2095 17.9996C24.2259 17.9656 24.235 17.9419 24.235 17.9311C24.235 17.8859 23.8474 17.8486 23.3739 17.8486H22.5125L19.8566 22.027H21.7052L22.1597 21.2809C22.5073 20.7103 22.6997 20.5348 22.9774 20.5348C23.2042 20.5348 23.6541 20.8147 24.1761 21.2809L25.0117 22.027H27.4084L27.8629 21.2809C27.973 21.1003 28.0676 20.959 28.1541 20.8507C28.2239 20.7633 28.2887 20.6972 28.3522 20.6485C28.4134 20.6016 28.4735 20.571 28.5362 20.5535C28.5826 20.5406 28.6303 20.5348 28.6807 20.5348C28.9076 20.5348 29.3575 20.8147 29.8793 21.2809L30.7149 22.027H38.5032L38.7539 21.5936C38.8919 21.3552 39.0048 21.1201 39.0048 21.0714C39.0048 21.0223 38.0177 20.9825 36.8113 20.9825C36.4585 20.9825 36.1245 20.978 35.8285 20.9698C35.536 20.9618 35.2805 20.9502 35.0804 20.9362C34.9576 20.9276 34.8557 20.9181 34.7791 20.9078C34.6751 20.894 34.6177 20.8789 34.6177 20.863C34.6177 20.4672 35.0585 20.3856 37.1962 20.3856H39.4236L40.0484 19.4901H37.7706C35.5292 19.4901 35.4957 19.4853 35.6753 19.1916C35.8451 18.9143 36.0173 18.8932 38.1261 18.8915L40.394 18.8895L41.0547 17.8486H32.2732L30.8586 18.5232C30.0806 18.894 29.3887 19.1789 29.3207 19.1557C29.253 19.1328 29.364 18.8833 29.5678 18.6014C29.7714 18.3195 29.9381 18.0351 29.9381 17.969C29.9381 17.9029 29.1789 17.8486 28.2509 17.8486H26.5635L25.0968 18.5349C24.2899 18.9121 23.6032 19.1936 23.5707 19.1604C23.5558 19.1451 23.5762 19.0801 23.622 18.9851C23.6463 18.9347 23.6777 18.8759 23.7147 18.8118C23.7598 18.733 23.8136 18.6462 23.8731 18.5568C23.9552 18.4335 24.0314 18.3131 24.0921 18.211ZM34.1809 18.1085C34.0613 18.1563 33.1522 18.5861 32.1611 19.0635L30.3589 19.9315L31.2637 20.7555C31.7615 21.2086 32.2097 21.5766 32.2599 21.5729C32.3101 21.5692 32.8583 20.7635 33.4784 19.7823C33.8986 19.1171 34.2455 18.5364 34.4077 18.2332C34.485 18.0889 34.5204 18.0075 34.5021 18.0097C34.4451 18.0162 34.3005 18.0605 34.1809 18.1085ZM25.9484 21.0852C25.9874 21.1104 26.0155 21.1246 26.0296 21.1255C26.1497 21.1321 27.7973 18.5943 27.7181 18.5243C27.6926 18.5017 27.0792 18.7603 26.3554 19.0992C25.6747 19.4179 25.2531 19.6072 25.0276 19.7519C24.8874 19.8417 24.8229 19.9145 24.8191 19.9905C24.8134 20.1065 24.9488 20.2299 25.1723 20.4334L25.2898 20.5408C25.4175 20.6586 25.5435 20.7689 25.6547 20.861C25.7049 20.9026 25.7522 20.9407 25.795 20.9741C25.8555 21.0212 25.9079 21.0591 25.9484 21.0852Z" fill="#CBCBCB"/>
<path d="M15.1684 17.9776C15.1684 18.0103 15.1395 18.0782 15.0918 18.1628C15.0361 18.2616 14.9551 18.3835 14.8652 18.5C14.602 18.8415 14.4529 18.8936 13.7318 18.8964L12.9017 18.8994L12.2801 19.8649C12.0653 20.1985 11.875 20.5208 11.7633 20.7349C11.6973 20.8615 11.6587 20.9502 11.6587 20.981C11.6587 21.0202 11.7418 21.0563 11.8785 21.0839C12.0322 21.1149 12.2533 21.1349 12.4995 21.1364L13.3404 21.1412L11.2563 22.0318C9.29918 22.8681 8.44143 23.0989 8.44143 22.7897C8.44143 22.7167 9.00081 21.844 9.68448 20.8503C10.3681 19.8568 10.9275 19.0099 10.9275 18.9685C10.9275 18.9272 10.1873 18.8899 9.2823 18.8859C7.70121 18.879 7.60013 18.8589 6.68668 18.371L5.73608 17.8631L10.4521 17.856C13.0461 17.8519 15.1684 17.9068 15.1684 17.9776Z" fill="#CBCBCB"/>
<path d="M45.5855 20.3759C45.5726 20.3753 45.5232 20.3186 45.4475 20.22C45.3298 20.0667 45.1481 19.812 44.9407 19.5077C44.8628 19.3938 44.7813 19.273 44.6982 19.1479L43.8839 17.9234L41.4179 17.8514L38.8934 21.9523L40.3324 21.9949C41.7133 22.0356 41.8089 22.0175 42.6915 21.5473L43.6113 21.057L41.3615 20.9078L41.8766 20.0497C42.16 19.5779 42.452 19.1916 42.5257 19.1916C42.5993 19.1916 43.2296 20.0648 43.9259 21.1317C44.6225 22.1986 45.2314 23.069 45.2793 23.0655C45.327 23.0623 46.0765 22.122 46.9448 20.9762L48.5236 18.8932H49.3311C50.1055 18.8932 50.4874 18.7188 51.3545 17.9688C51.4309 17.9027 50.5754 17.8523 49.4535 17.8566L47.4135 17.8646L46.5361 19.1219C46.0535 19.8133 45.6258 20.3776 45.5855 20.3759Z" fill="#CBCBCB"/>
<path d="M35.4407 27.1158C36.2208 26.8417 39.7341 24.3773 39.7478 24.0944C39.7508 24.0328 34.6697 23.9837 28.4563 23.9852L17.1598 23.988L14.9661 25.6985L31.3406 25.8478L30.3191 26.2842C26.9111 27.74 23.1328 30.2016 21.0569 32.3181L19.6456 33.7569L23.2284 33.7982C26.8043 33.8396 26.8119 33.8389 27.0767 33.4998C28.8165 31.2733 29.8842 30.2324 31.6801 29.0113C32.6816 28.3305 34.2901 27.5198 35.4407 27.1158Z" fill="#CBCBCB"/>
</svg>
