<svg width="56" height="50" viewBox="0 0 56 50" fill="none" xmlns="http://www.w3.org/2000/svg">
<path fill-rule="evenodd" clip-rule="evenodd" d="M8.61113 9.16658C9.27148 11.1715 9.60139 13.1259 9.94061 17.0422C10.1217 19.1326 10.1219 31.5422 9.94092 33.3569C9.59846 36.7899 9.31302 38.3945 8.69937 40.3369C8.47781 41.038 8.2701 41.6799 8.23785 41.7632C8.1858 41.8974 8.88677 41.9146 14.3894 41.9146C17.8051 41.9146 20.6247 41.8899 20.6552 41.8597C20.6857 41.8294 20.4923 41.1425 20.2255 40.3333C19.9587 39.5239 19.6343 38.2651 19.5046 37.5358L19.2688 36.2097L17.831 36.2096L16.3931 36.2095L16.4411 36.4847C16.4675 36.636 16.5594 37.1878 16.6452 37.7108C16.731 38.2338 16.8251 38.7404 16.8541 38.8368C16.9036 39.0003 16.7435 39.012 14.4634 39.012H12.0198L12.0753 38.7868C12.3264 37.7686 12.6596 35.0937 12.8703 32.406C13.0368 30.2813 13.0352 20.62 12.8679 18.1932C12.6377 14.8532 12.7111 15.1697 11.9784 14.3537L11.3371 13.6391L11.8915 13.6091C12.2399 13.5903 12.4453 13.5344 12.4442 13.4589C12.442 13.3137 12.1919 11.6857 12.0914 11.1619L12.0192 10.7865H14.4673H16.9154L16.8584 11.0117C16.7615 11.3942 16.49 13.1258 16.4896 13.3639C16.4892 13.5867 16.5043 13.5891 17.8954 13.5891H19.3015L19.3667 13.1637C19.5714 11.8278 19.889 10.4814 20.2757 9.3102L20.7138 7.98401H14.4677H8.22168L8.61113 9.16658ZM21.4912 9.3102C21.8598 10.4481 22.1355 11.6329 22.3993 13.2137L22.462 13.5891H23.8724C25.1485 13.5891 25.2829 13.5723 25.2825 13.4139C25.2821 13.2347 25.0237 11.5575 24.9201 11.0618L24.8626 10.7865H27.3045H29.7464L29.6889 11.0618C29.5853 11.5575 29.3269 13.2347 29.3265 13.4139C29.3261 13.5723 29.4605 13.5891 30.7366 13.5891H32.147L32.2079 13.2137C32.4459 11.7453 32.7475 10.4512 33.1175 9.3102L33.5475 7.98401H27.3045H21.0615L21.4912 9.3102ZM34.3333 9.3102C34.72 10.4814 35.0376 11.8278 35.2423 13.1637L35.3075 13.5891H36.7137C38.1047 13.5891 38.1199 13.5867 38.1194 13.3639C38.119 13.1258 37.8475 11.3942 37.7506 11.0117L37.6936 10.7865H40.1417H42.5898L42.5177 11.1619C42.4171 11.6857 42.167 13.3137 42.1648 13.4589C42.1637 13.5344 42.3691 13.5903 42.7175 13.6091L43.2719 13.6391L42.6306 14.3537C41.898 15.1696 41.972 14.8504 41.7405 18.1932C41.5729 20.6113 41.5719 30.2715 41.7389 32.406C41.9491 35.0913 42.2825 37.768 42.5337 38.7868L42.5892 39.012H40.1456C37.8655 39.012 37.7054 39.0003 37.7549 38.8368C37.7839 38.7404 37.878 38.2338 37.9638 37.7108C38.0496 37.1878 38.1415 36.636 38.1679 36.4847L38.2159 36.2095H36.7528C35.303 36.2095 35.2897 36.2115 35.2893 36.4347C35.2884 36.9324 34.6721 39.5331 34.2949 40.6311C34.074 41.2738 33.9195 41.8256 33.9514 41.8572C33.9832 41.8888 36.8039 41.9146 40.2196 41.9146C45.7222 41.9146 46.4232 41.8974 46.3712 41.7632C46.0954 41.0516 45.4685 38.8696 45.3076 38.0611C44.6935 34.9769 44.5714 33.2173 44.5159 26.6508C44.4337 16.9431 44.8235 12.5475 46.0938 8.8598L46.3954 7.98401H40.1454H33.8952L34.3333 9.3102ZM14.9882 15.5944C15.7798 16.4787 16.4593 17.4685 16.6922 18.0762C16.8047 18.3697 17.561 21.5676 18.3728 25.1826C19.7642 31.3781 19.8461 31.8014 19.7982 32.5562C19.7642 33.0956 19.6613 33.5667 19.483 33.9997C19.3373 34.3533 19.2183 34.6798 19.2183 34.7253C19.2183 34.771 20.7018 34.8082 22.5151 34.8082H25.8119L25.741 34.5329C25.7021 34.3816 25.6465 33.9102 25.6176 33.4854C25.5742 32.8483 25.6114 32.5506 25.8301 31.7839C26.1761 30.5702 27.2235 27.6017 27.3058 27.6017C27.3703 27.6017 28.0737 29.5449 28.6464 31.305C28.898 32.0783 28.9572 32.4335 28.9633 33.2068C28.9673 33.7297 28.9313 34.3039 28.883 34.4829L28.7954 34.8082H32.0931C33.9068 34.8082 35.3907 34.771 35.3907 34.7253C35.3907 34.6798 35.2744 34.3591 35.1323 34.0126C34.9625 33.5988 34.8545 33.1036 34.8175 32.5691C34.7639 31.7932 34.8274 31.4585 36.1892 25.3497C36.9745 21.8265 37.7314 18.6286 37.871 18.2433C38.1448 17.4875 38.7605 16.5555 39.6208 15.5944L40.1614 14.9903H36.2948C32.6206 14.9903 32.4358 14.999 32.5832 15.1655C33.0209 15.6597 33.1159 16.0157 33.1111 17.1423L33.1064 18.2433L31.9005 22.0634C31.2373 24.1645 30.6695 25.8681 30.6388 25.8493C30.608 25.8305 29.8566 23.8984 28.969 21.5556C28.0813 19.2128 27.3323 17.2961 27.3045 17.2961C27.2767 17.2961 26.5277 19.2128 25.6401 21.5556C24.7524 23.8984 24.0009 25.8306 23.97 25.8494C23.8926 25.8968 21.6724 18.7861 21.5325 18.0431C21.3219 16.9246 21.5269 15.7289 22.0258 15.1655C22.1732 14.999 21.9884 14.9903 18.3142 14.9903H14.4476L14.9882 15.5944ZM22.3583 36.9852C22.167 38.1995 21.8566 39.4415 21.43 40.6987C21.2142 41.3348 21.0377 41.8686 21.0377 41.8849C21.0377 41.9418 33.437 41.9142 33.4945 41.8572C33.5265 41.8256 33.3802 41.2918 33.1696 40.671C32.7518 39.4395 32.4409 38.1924 32.2507 36.9852L32.1286 36.2095H30.6862C29.3664 36.2095 29.2469 36.2244 29.2797 36.3846C29.2994 36.4809 29.3887 37.0327 29.4784 37.6107C29.5679 38.1887 29.6644 38.7405 29.6927 38.8368C29.7406 39.0002 29.58 39.012 27.3045 39.012C25.029 39.012 24.8684 39.0002 24.9163 38.8368C24.9446 38.7405 25.0411 38.1887 25.1306 37.6107C25.2203 37.0327 25.3096 36.4809 25.3293 36.3846C25.3621 36.2244 25.2426 36.2095 23.9228 36.2095H22.4805L22.3583 36.9852Z" fill="#CBCBCB"/>
</svg>
