<svg width="56" height="51" viewBox="0 0 56 51" fill="none" xmlns="http://www.w3.org/2000/svg">
<path d="M39.036 14.9163L36.4316 12.3585L33.6353 9.68389H22.2035L16.8753 14.9163H25.2094V38.0196L27.9559 40.6468L30.7019 38.0196V14.9163H39.036Z" fill="#CBCBCB"/>
<path d="M33.7146 17.4163V27.7246L30.9754 30.3428L34.8524 33.9847L39.0445 29.9747L39.0454 17.4163H33.7146ZM22.1978 27.7246V17.4163H16.8663V29.9747L21.06 33.9847L24.9358 30.3428L22.1978 27.7246Z" fill="#CBCBCB"/>
<path d="M21.7927 8.27545L15.0461 14.7987V30.611L27.9198 42.8322L40.793 30.611V14.7992L34.0467 8.27545H21.7927ZM13.8079 14.0119L20.9834 7.07738L21.1957 6.87061H34.6428L34.855 7.07738L42.031 14.0119L42.2464 14.2206V31.1949L42.0283 31.4014L27.9198 44.7948L27.4114 44.3131L13.8112 31.4015L13.5925 31.195V14.2207L13.8079 14.0119Z" fill="#CBCBCB"/>
</svg>
