<svg width="56" height="51" viewBox="0 0 56 51" fill="none" xmlns="http://www.w3.org/2000/svg">
<path fill-rule="evenodd" clip-rule="evenodd" d="M21.1466 9.79648C17.4521 11.4058 14.212 12.8535 13.947 13.0138C13.504 13.2814 13.4648 14.0105 13.4648 22.0104V30.7161L20.625 37.7555L27.7854 44.7948L34.9519 37.7679L42.1187 30.741V21.919V13.0971L37.9171 11.2617C35.6063 10.2523 32.399 8.85111 30.7897 8.1485L27.864 6.87061L21.1466 9.79648ZM34.0389 11.8L40.0523 14.3547L40.1248 22.1404L40.197 29.9262L34.0609 35.9412L27.9251 41.9563L21.7929 35.935L15.6607 29.9135L15.642 22.2513C15.6315 18.037 15.7266 14.4923 15.8528 14.3739C16.0955 14.1465 27.5223 9.26419 27.8397 9.25229C27.9417 9.24851 30.7313 10.3947 34.0389 11.8ZM26.5484 11.7172L25.443 12.2633L23.77 18.1886C22.8498 21.4475 22.18 24.1139 22.2814 24.1139C22.3828 24.1139 23.6706 23.633 25.1432 23.045C27.3129 22.1788 27.7954 22.0634 27.6865 22.4367C27.3611 23.5524 25.3121 31.3863 25.3121 31.5144C25.3121 31.5928 26.2467 31.2214 27.389 30.6891C28.531 30.1568 29.5325 29.787 29.6143 29.8673C29.6962 29.9473 29.3719 31.9202 28.8938 34.2516C28.4158 36.583 28.0654 38.5297 28.115 38.5778C28.1645 38.626 29.4722 35.8539 31.0208 32.4179C32.5698 28.9819 33.7912 26.1258 33.7355 26.0712C33.6799 26.0163 32.7566 26.4053 31.684 26.9352C30.6117 27.465 29.622 27.8986 29.4851 27.8986C29.3479 27.8986 29.9832 25.6459 30.8971 22.8928C31.8108 20.1397 32.5004 17.8304 32.4296 17.7609C32.359 17.6917 31.3407 17.9978 30.1667 18.4414C28.9928 18.885 27.9868 19.2478 27.9312 19.2478C27.8758 19.2478 28.3734 17.6593 29.0368 15.718L30.2436 12.1879L28.9947 11.6629C28.3081 11.3739 27.7254 11.1452 27.7 11.1544C27.6747 11.1636 27.1564 11.4169 26.5484 11.7172Z" fill="#CBCBCB"/>
</svg>
