<svg width="40" height="40" viewBox="0 0 40 40" fill="none" xmlns="http://www.w3.org/2000/svg">
<path d="M13.0195 26.4714V16.1533H10.6348V13.5088H16.3115V26.4676H13.0195V26.4714Z" fill="#A3A3A3"/>
<path d="M28.6824 16.8541C28.6824 17.9825 28.0736 18.979 27.0538 19.5335C28.4769 20.1268 29.3648 21.3637 29.3648 22.8062C29.3648 25.1366 27.2942 26.6139 24.0604 26.6139C20.8265 26.6139 18.7559 25.1521 18.7559 22.8605C18.7559 21.3831 19.7175 20.1229 21.2142 19.5335C20.1246 18.9248 19.4189 17.8894 19.4189 16.7611C19.4189 14.6905 21.2297 13.376 24.041 13.376C26.8871 13.3799 28.6824 14.7292 28.6824 16.8541ZM21.8579 22.5309C21.8579 23.6205 22.6334 24.2331 24.0565 24.2331C25.4795 24.2331 26.2744 23.6399 26.2744 22.5309C26.2744 21.4568 25.4795 20.848 24.0565 20.848C22.6334 20.848 21.8579 21.4607 21.8579 22.5309ZM22.1914 17.0403C22.1914 17.9631 22.8583 18.4827 24.0604 18.4827C25.2624 18.4827 25.9293 17.967 25.9293 17.0403C25.9293 16.0786 25.2624 15.5435 24.0604 15.5435C22.8583 15.5435 22.1914 16.0786 22.1914 17.0403Z" fill="#A3A3A3"/>
<path d="M34.8394 14.9747C35.3861 16.5878 35.6653 18.2784 35.6653 20C35.6653 28.6392 28.6392 35.6653 20 35.6653C11.3608 35.6653 4.33469 28.6392 4.33469 20C4.33469 11.3608 11.3608 4.33469 20 4.33469C21.7216 4.33469 23.4122 4.61388 25.0253 5.16061V1.67469C23.3967 1.2249 21.71 1 20 1C9.52286 1 1 9.52286 1 20C1 30.4771 9.52286 39 20 39C30.4771 39 39 30.4771 39 20C39 18.29 38.7751 16.6033 38.3253 14.9747H34.8394Z" fill="#A3A3A3"/>
<path d="M33.8932 6.09512V2.4541H31.272V6.09512H27.6504V8.71635H31.272V12.3612H33.8932V8.71635H37.5343V6.09512H33.8932Z" fill="#A3A3A3"/>
</svg>
