<svg width="42" height="40" viewBox="0 0 42 40" fill="none" xmlns="http://www.w3.org/2000/svg">
<g clip-path="url(#clip0_214_21)">
<path fill-rule="evenodd" clip-rule="evenodd" d="M31.7553 13.017C29.3647 8.97676 24.9968 6.50684 20.0037 6.50684C12.4448 6.50684 6.55097 12.353 6.55097 20C6.55097 27.647 12.4448 34.0814 20.0037 34.0814C24.9968 34.0814 29.3647 31.1409 31.7553 27.1007H38.6066C35.7752 34.6407 28.4501 40 20.0037 40C9.08522 40 0 31.0457 0 20C0 8.95429 9.08522 0 20.0037 0C28.4501 0 35.7752 5.47696 38.6066 13.017H31.7553V13.017ZM42.0001 17.6471L35.0975 22.5883H26.4376C25.429 25.2037 22.9043 27.0589 19.9471 27.0589C16.1026 27.0589 12.9861 23.9249 12.9861 20.0588C12.9861 16.1928 16.1026 13.0588 19.9471 13.0588C22.9488 13.0588 25.5065 14.9694 26.4838 17.6471H42.0001Z" fill="#FF0000"/>
</g>
<defs>
<clipPath id="clip0_214_21">
<rect width="42" height="40" fill="white"/>
</clipPath>
</defs>
</svg>
