<svg width="243" height="44" viewBox="0 0 243 44" fill="none" xmlns="http://www.w3.org/2000/svg">
<path d="M183.815 21.9294C181.804 21.9294 179.989 21.4805 178.368 20.5825C176.768 19.665 175.509 18.406 174.591 16.8053C173.674 15.2046 173.215 13.3989 173.215 11.3883C173.215 9.37768 173.674 7.57202 174.591 5.97133C175.509 4.37064 176.768 3.12132 178.368 2.22337C179.989 1.3059 181.814 0.847168 183.844 0.847168C185.874 0.847168 187.69 1.3059 189.29 2.22337C190.91 3.12132 192.179 4.37064 193.097 5.97133C194.014 7.57202 194.473 9.37768 194.473 11.3883C194.473 13.3989 194.014 15.2046 193.097 16.8053C192.179 18.406 190.91 19.665 189.29 20.5825C187.67 21.4805 185.845 21.9294 183.815 21.9294ZM183.844 19.8212C185.425 19.8212 186.84 19.4698 188.09 18.7671C189.339 18.0448 190.315 17.0493 191.018 15.7804C191.721 14.4921 192.072 13.028 192.072 11.3883C192.072 9.74857 191.721 8.28452 191.018 6.99616C190.315 5.7078 189.339 4.71225 188.09 4.00951C186.84 3.28724 185.425 2.92611 183.844 2.92611C182.263 2.92611 180.848 3.28724 179.598 4.00951C178.349 4.71225 177.373 5.7078 176.67 6.99616C175.967 8.28452 175.616 9.74857 175.616 11.3883C175.616 13.028 175.967 14.4921 176.67 15.7804C177.373 17.0493 178.349 18.0448 179.598 18.7671C180.848 19.4698 182.263 19.8212 183.844 19.8212Z" fill="url(#paint0_linear_19_2025)"/>
<path d="M242.438 1.13998V3.16036H235.322V21.6366H233.038V1.13998H242.438Z" fill="url(#paint1_linear_19_2025)"/>
<path d="M210.56 14.17L217.265 21.6366H220.135L213.371 14.0821C215.499 13.8284 217.129 13.1549 218.261 12.0618C219.412 10.9686 219.988 9.50456 219.988 7.66962C219.988 5.58092 219.256 3.97047 217.792 2.83827C216.348 1.70607 214.288 1.13998 211.614 1.13998H205.934V3.16036H211.555C213.566 3.16036 215.098 3.54101 216.153 4.30232C217.207 5.06362 217.734 6.19582 217.734 7.6989C217.734 10.666 215.665 12.1496 211.526 12.1496H205.934V14.17H210.56Z" fill="url(#paint2_linear_19_2025)"/>
<path d="M157.386 1.13998C160.002 1.13998 162.051 1.74512 163.535 2.95539C165.019 4.16567 165.76 5.83468 165.76 7.96243C165.76 10.1292 165.009 11.8178 163.506 13.028C162.003 14.2383 159.943 14.8434 157.327 14.8434H151.998V21.6366H149.744V12.7938H157.298C159.27 12.7938 160.792 12.3838 161.866 11.564C162.959 10.7246 163.506 9.51432 163.506 7.93315C163.506 6.39102 162.969 5.21002 161.895 4.39016C160.822 3.57029 159.299 3.16036 157.327 3.16036H149.744V1.13998H157.386Z" fill="url(#paint3_linear_19_2025)"/>
<path d="M133.558 19.8212C135.159 19.8212 136.398 19.4991 137.277 18.8549C138.175 18.1912 138.624 17.3421 138.624 16.3075C138.624 15.5657 138.429 14.9606 138.038 14.4921C137.648 14.0236 137.062 13.6429 136.281 13.3501C135.52 13.0378 134.466 12.7352 133.119 12.4424C130.659 11.8958 128.844 11.1736 127.673 10.2756C126.501 9.37767 125.916 8.10883 125.916 6.4691C125.916 5.31739 126.238 4.32184 126.882 3.48245C127.526 2.62354 128.405 1.9696 129.517 1.52063C130.591 1.0873 131.802 0.863087 133.148 0.847986V2.92611C131.645 2.92611 130.454 3.2482 129.576 3.89238C128.717 4.53656 128.288 5.40523 128.288 6.49838C128.288 7.20113 128.473 7.78675 128.844 8.25524C129.215 8.72373 129.791 9.12391 130.572 9.45576C131.352 9.78761 132.416 10.1097 133.763 10.422C135.5 10.7929 136.877 11.2029 137.892 11.6518C138.926 12.1008 139.697 12.6864 140.205 13.4087C140.732 14.1309 140.996 15.0582 140.996 16.1904C140.996 17.3421 140.673 18.3572 140.029 19.2356C139.385 20.0945 138.487 20.7582 137.335 21.2267C136.203 21.6952 134.895 21.9294 133.412 21.9294V19.8202C133.461 19.8209 133.509 19.8212 133.558 19.8212Z" fill="url(#paint4_linear_19_2025)"/>
<path d="M108.637 14.17L115.342 21.6366H118.212L111.448 14.0821C113.576 13.8284 115.206 13.1549 116.338 12.0618C117.49 10.9686 118.066 9.50456 118.066 7.66962C118.066 5.58092 117.334 3.97047 115.87 2.83827C114.425 1.70607 112.366 1.13998 109.691 1.13998H104.011V3.16036H109.633C111.643 3.16036 113.176 3.54101 114.23 4.30232C115.284 5.06362 115.811 6.19582 115.811 7.6989C115.811 10.666 113.742 12.1496 109.603 12.1496H104.011V14.17H108.637Z" fill="url(#paint5_linear_19_2025)"/>
<path d="M92.9491 1.13998V3.16036H79.4015V1.13998H92.9491Z" fill="url(#paint6_linear_19_2025)"/>
<path d="M79.4015 10.1292H92.9608V12.1496H79.4015V10.1292Z" fill="url(#paint7_linear_19_2025)"/>
<path d="M79.4015 19.6162H92.9586V21.6366H79.4015V19.6162Z" fill="url(#paint8_linear_19_2025)"/>
<path d="M63.6171 11.1248C65.0226 11.3981 66.1352 11.9934 66.9551 12.9109C67.775 13.8284 68.1849 14.941 68.1849 16.2489C68.1849 17.9082 67.5309 19.2258 66.2231 20.2019C64.9347 21.1584 63.1681 21.6366 60.9232 21.6366H53.1638V19.587H60.5426C62.3189 19.587 63.6561 19.2746 64.5541 18.65C65.4715 18.0253 65.9303 17.1274 65.9303 15.9561C65.9303 14.7654 65.4618 13.8577 64.5248 13.233C63.6073 12.6083 62.2897 12.296 60.5719 12.296H53.1638V10.2463H60.279C61.8212 10.2463 62.9924 9.94377 63.7928 9.33863C64.5931 8.71397 64.9933 7.83555 64.9933 6.70335C64.9933 5.55164 64.5736 4.68297 63.7342 4.09735C62.8948 3.49221 61.665 3.18964 60.0448 3.18964H53.1638V1.13998H60.5426C62.6118 1.13998 64.2417 1.59871 65.4325 2.51618C66.6232 3.43365 67.2186 4.69273 67.2186 6.29342C67.2186 7.44513 66.8965 8.46021 66.2523 9.33863C65.6277 10.1975 64.7493 10.7929 63.6171 11.1248Z" fill="url(#paint9_linear_19_2025)"/>
<path d="M40.6686 1.13998H43.1575L34.871 13.9943V21.6366H32.5871V13.9065L33.7583 12.0032L40.6686 1.13998Z" fill="url(#paint10_linear_19_2025)"/>
<path d="M11.1832 21.6403C9.21161 21.6403 7.41571 21.1941 5.7955 20.3018C4.17529 19.3905 2.89669 18.1565 1.9597 16.5997C1.04223 15.0429 0.583496 13.3058 0.583496 11.3883C0.583496 9.47075 1.04223 7.7336 1.9597 6.17681C2.87717 4.62002 4.13625 3.39547 5.73694 2.50316C7.35715 1.59187 9.15304 1.13623 11.1246 1.13623L11.1832 3.15816C9.64106 3.15816 8.23557 3.51888 6.96674 4.24031C5.71742 4.96175 4.73163 5.94899 4.00936 7.20201C3.30662 8.45504 2.95525 9.84096 2.95525 11.3598C2.95525 12.9356 3.31638 14.35 4.03864 15.603C4.76091 16.856 5.7467 17.8432 6.99602 18.5647C8.26486 19.2671 9.66058 19.6184 11.1832 19.6184V21.6403Z" fill="url(#paint11_linear_19_2025)"/>
<path d="M11.0842 19.6204H18.657V21.6403H11.0842V19.6204Z" fill="url(#paint12_linear_19_2025)"/>
<path d="M11.0842 1.13624H18.657V3.15611H11.0842V1.13624Z" fill="url(#paint13_linear_19_2025)"/>
<path d="M77.9595 34.1351C79.1307 34.1351 80.0522 34.415 80.724 34.9748C81.3957 35.5345 81.7316 36.3053 81.7316 37.2871C81.7316 38.2689 81.3957 39.0396 80.724 39.5994C80.0522 40.1592 79.1307 40.4391 77.9595 40.4391H75.7247V43.1777H74.4329V34.1351H77.9595ZM77.9207 39.3152C78.7389 39.3152 79.3633 39.143 79.7939 38.7985C80.2245 38.4454 80.4398 37.9416 80.4398 37.2871C80.4398 36.6326 80.2245 36.1331 79.7939 35.7886C79.3633 35.4355 78.7389 35.259 77.9207 35.259H75.7247V39.3152H77.9207Z" fill="#8B8B8B"/>
<path d="M92.4246 40.9171H87.6191L86.6244 43.1777H85.2938L89.3888 34.1351H90.6677L94.7757 43.1777H93.4193L92.4246 40.9171ZM91.9724 39.8836L90.0218 35.4527L88.0712 39.8836H91.9724Z" fill="#8B8B8B"/>
<path d="M105.658 43.1777L103.707 40.4003C103.466 40.4176 103.277 40.4262 103.139 40.4262H100.904V43.1777H99.6125V34.1351H103.139C104.31 34.1351 105.232 34.415 105.904 34.9748C106.575 35.5345 106.911 36.3053 106.911 37.2871C106.911 37.9847 106.739 38.5789 106.394 39.0698C106.05 39.5607 105.559 39.9181 104.922 40.142L107.066 43.1777H105.658ZM103.1 39.3281C103.918 39.3281 104.543 39.1516 104.973 38.7985C105.404 38.4454 105.619 37.9416 105.619 37.2871C105.619 36.6326 105.404 36.1331 104.973 35.7886C104.543 35.4355 103.918 35.259 103.1 35.259H100.904V39.3281H103.1Z" fill="#8B8B8B"/>
<path d="M114.156 35.259H111.055V34.1351H118.535V35.259H115.434V43.1777H114.156V35.259Z" fill="#8B8B8B"/>
<path d="M131.206 34.1351V43.1777H130.147L124.721 36.4345V43.1777H123.43V34.1351H124.489L129.914 40.8783V34.1351H131.206Z" fill="#8B8B8B"/>
<path d="M143.963 42.0538V43.1777H137.401V34.1351H143.782V35.259H138.693V38.0363H143.227V39.1344H138.693V42.0538H143.963Z" fill="#8B8B8B"/>
<path d="M155.588 43.1777L153.638 40.4003C153.397 40.4176 153.207 40.4262 153.069 40.4262H150.835V43.1777H149.543V34.1351H153.069C154.241 34.1351 155.162 34.415 155.834 34.9748C156.506 35.5345 156.841 36.3053 156.841 37.2871C156.841 37.9847 156.669 38.5789 156.325 39.0698C155.98 39.5607 155.489 39.9181 154.852 40.142L156.996 43.1777H155.588ZM153.031 39.3281C153.849 39.3281 154.473 39.1516 154.904 38.7985C155.334 38.4454 155.55 37.9416 155.55 37.2871C155.55 36.6326 155.334 36.1331 154.904 35.7886C154.473 35.4355 153.849 35.259 153.031 35.259H150.835V39.3281H153.031Z" fill="#8B8B8B"/>
<path d="M165.052 43.2811C164.371 43.2811 163.713 43.1777 163.075 42.971C162.447 42.7557 161.951 42.4801 161.59 42.1443L162.068 41.1367C162.412 41.4467 162.851 41.7008 163.385 41.8988C163.928 42.0883 164.483 42.183 165.052 42.183C165.801 42.183 166.361 42.0582 166.731 41.8084C167.101 41.55 167.286 41.2099 167.286 40.7879C167.286 40.4778 167.183 40.2281 166.976 40.0386C166.778 39.8406 166.529 39.6898 166.227 39.5865C165.934 39.4832 165.517 39.3669 164.974 39.2377C164.294 39.0741 163.743 38.9105 163.321 38.7468C162.907 38.5832 162.55 38.3334 162.248 37.9976C161.956 37.6531 161.809 37.1924 161.809 36.6153C161.809 36.1331 161.934 35.6982 162.184 35.3106C162.442 34.9231 162.83 34.613 163.346 34.3805C163.863 34.148 164.505 34.0317 165.271 34.0317C165.805 34.0317 166.331 34.1006 166.847 34.2384C167.364 34.3762 167.808 34.5743 168.178 34.8327L167.752 35.8661C167.373 35.625 166.968 35.4441 166.537 35.3235C166.107 35.1944 165.685 35.1298 165.271 35.1298C164.539 35.1298 163.988 35.2633 163.618 35.5302C163.256 35.7972 163.075 36.1417 163.075 36.5637C163.075 36.8737 163.179 37.1278 163.385 37.3258C163.592 37.5153 163.846 37.666 164.147 37.778C164.457 37.8813 164.875 37.9933 165.4 38.1138C166.081 38.2775 166.628 38.4411 167.041 38.6047C167.454 38.7684 167.808 39.0181 168.1 39.354C168.402 39.6898 168.552 40.142 168.552 40.7104C168.552 41.184 168.423 41.6189 168.165 42.0151C167.907 42.4026 167.515 42.7127 166.989 42.9452C166.464 43.1691 165.818 43.2811 165.052 43.2811Z" fill="#8B8B8B"/>
<defs>
<linearGradient id="paint0_linear_19_2025" x1="0.583496" y1="11.3883" x2="242.438" y2="11.3883" gradientUnits="userSpaceOnUse">
<stop stop-color="#4776E6"/>
<stop offset="1" stop-color="#8E54E9"/>
</linearGradient>
<linearGradient id="paint1_linear_19_2025" x1="0.583496" y1="11.3883" x2="242.438" y2="11.3883" gradientUnits="userSpaceOnUse">
<stop stop-color="#4776E6"/>
<stop offset="1" stop-color="#8E54E9"/>
</linearGradient>
<linearGradient id="paint2_linear_19_2025" x1="0.583496" y1="11.3883" x2="242.438" y2="11.3883" gradientUnits="userSpaceOnUse">
<stop stop-color="#4776E6"/>
<stop offset="1" stop-color="#8E54E9"/>
</linearGradient>
<linearGradient id="paint3_linear_19_2025" x1="0.583496" y1="11.3883" x2="242.438" y2="11.3883" gradientUnits="userSpaceOnUse">
<stop stop-color="#4776E6"/>
<stop offset="1" stop-color="#8E54E9"/>
</linearGradient>
<linearGradient id="paint4_linear_19_2025" x1="0.583496" y1="11.3883" x2="242.438" y2="11.3883" gradientUnits="userSpaceOnUse">
<stop stop-color="#4776E6"/>
<stop offset="1" stop-color="#8E54E9"/>
</linearGradient>
<linearGradient id="paint5_linear_19_2025" x1="0.583496" y1="11.3883" x2="242.438" y2="11.3883" gradientUnits="userSpaceOnUse">
<stop stop-color="#4776E6"/>
<stop offset="1" stop-color="#8E54E9"/>
</linearGradient>
<linearGradient id="paint6_linear_19_2025" x1="0.583496" y1="11.3883" x2="242.438" y2="11.3883" gradientUnits="userSpaceOnUse">
<stop stop-color="#4776E6"/>
<stop offset="1" stop-color="#8E54E9"/>
</linearGradient>
<linearGradient id="paint7_linear_19_2025" x1="0.583496" y1="11.3883" x2="242.438" y2="11.3883" gradientUnits="userSpaceOnUse">
<stop stop-color="#4776E6"/>
<stop offset="1" stop-color="#8E54E9"/>
</linearGradient>
<linearGradient id="paint8_linear_19_2025" x1="0.583496" y1="11.3883" x2="242.438" y2="11.3883" gradientUnits="userSpaceOnUse">
<stop stop-color="#4776E6"/>
<stop offset="1" stop-color="#8E54E9"/>
</linearGradient>
<linearGradient id="paint9_linear_19_2025" x1="0.583496" y1="11.3883" x2="242.438" y2="11.3883" gradientUnits="userSpaceOnUse">
<stop stop-color="#4776E6"/>
<stop offset="1" stop-color="#8E54E9"/>
</linearGradient>
<linearGradient id="paint10_linear_19_2025" x1="0.583496" y1="11.3883" x2="242.438" y2="11.3883" gradientUnits="userSpaceOnUse">
<stop stop-color="#4776E6"/>
<stop offset="1" stop-color="#8E54E9"/>
</linearGradient>
<linearGradient id="paint11_linear_19_2025" x1="0.583496" y1="11.3883" x2="242.438" y2="11.3883" gradientUnits="userSpaceOnUse">
<stop stop-color="#4776E6"/>
<stop offset="1" stop-color="#8E54E9"/>
</linearGradient>
<linearGradient id="paint12_linear_19_2025" x1="0.583496" y1="11.3883" x2="242.438" y2="11.3883" gradientUnits="userSpaceOnUse">
<stop stop-color="#4776E6"/>
<stop offset="1" stop-color="#8E54E9"/>
</linearGradient>
<linearGradient id="paint13_linear_19_2025" x1="0.583496" y1="11.3883" x2="242.438" y2="11.3883" gradientUnits="userSpaceOnUse">
<stop stop-color="#4776E6"/>
<stop offset="1" stop-color="#8E54E9"/>
</linearGradient>
</defs>
</svg>
