<svg width="514" height="277" viewBox="0 0 514 277" fill="none" xmlns="http://www.w3.org/2000/svg">
<g clip-path="url(#clip0_19_1752)">
<line y1="18.5" x2="514" y2="18.5" stroke="#ECE9F1"/>
<line y1="90.5" x2="514" y2="90.5" stroke="#ECE9F1"/>
<line y1="162.5" x2="514" y2="162.5" stroke="#ECE9F1"/>
<line y1="234.5" x2="514" y2="234.5" stroke="#ECE9F1"/>
<g clip-path="url(#clip1_19_1752)">
<path d="M1 153.543C53.0537 146.564 49.5835 188.024 118.121 194.073C186.658 200.122 205.745 157.78 236.977 145.682C268.209 133.585 282.09 78.4576 334.144 82.1799C386.198 85.9023 412.225 123.199 455.603 127.852C498.981 132.505 507.656 163.363 548.432 186.163C589.207 208.962 626.512 211.754 677.699 207.101C728.885 202.448 742.766 155.404 767.058 153.543C791.349 151.682 813.038 174.115 833.86 179.234C854.681 184.352 860.754 207.101 905 207.101" stroke="#ECE9F1" stroke-width="4" stroke-linecap="round" stroke-linejoin="round"/>
<path d="M0 218.794C39.8055 212.629 72.5382 175.034 120.033 168.715C145.348 165.347 165.627 171.902 188.254 182.088C210.88 192.273 206.451 196.671 257.338 204.524C299.331 211.004 310.315 141.14 351.465 143.825C392.614 146.509 411.646 62.5119 455.091 69.5236C498.535 76.5353 507.216 58.4067 548.054 92.7643C588.892 127.122 626.622 47.0367 677.886 40.0249C729.151 33.0132 742.503 107.435 766.832 104.63C791.161 101.825 813.066 154.855 833.92 162.568C854.773 170.281 860.686 142.263 905 142.263" stroke="#FF9E22" stroke-width="4" stroke-linecap="round" stroke-linejoin="round"/>
<path d="M120.033 168.715C72.5382 175.034 39.8055 212.629 0 218.794V234H905V142.263C860.686 142.263 854.773 170.281 833.919 162.568C813.066 154.855 791.161 101.825 766.832 104.63C742.503 107.435 729.151 33.0132 677.886 40.0249C626.622 47.0367 588.892 127.122 548.054 92.7643C507.216 58.4067 498.535 76.5353 455.091 69.5236C411.646 62.5119 392.614 146.509 351.465 143.825C310.315 141.14 299.331 211.004 257.338 204.524C206.451 196.671 210.88 192.273 188.254 182.088C165.627 171.902 145.348 165.347 120.033 168.715Z" fill="url(#paint0_linear_19_1752)"/>
</g>
<path d="M3.444 251.2V261H2.436V252.096H0.126V251.2H3.444Z" fill="#A2A3A5"/>
<path d="M78.3392 255.218C79.7578 255.218 80.7892 255.475 81.4332 255.988C82.0865 256.492 82.4132 257.201 82.4132 258.116C82.4132 258.685 82.2778 259.194 82.0072 259.642C81.7458 260.09 81.3492 260.445 80.8172 260.706C80.2852 260.958 79.6318 261.084 78.8572 261.084C78.1572 261.084 77.4898 260.972 76.8552 260.748C76.2298 260.515 75.7258 260.207 75.3432 259.824L75.8332 259.026C76.1598 259.362 76.5892 259.637 77.1212 259.852C77.6532 260.057 78.2272 260.16 78.8432 260.16C79.6552 260.16 80.2805 259.978 80.7192 259.614C81.1672 259.25 81.3912 258.765 81.3912 258.158C81.3912 257.486 81.1392 256.977 80.6352 256.632C80.1405 256.287 79.3005 256.114 78.1152 256.114H76.0292L76.5332 251.2H81.8952V252.096H77.4152L77.0792 255.218H78.3392Z" fill="#A2A3A5"/>
<path d="M156.78 251.2V261H155.772V252.096H153.462V251.2H156.78ZM163.029 261.084C162.273 261.084 161.596 260.883 160.999 260.482C160.411 260.081 159.949 259.507 159.613 258.76C159.286 258.004 159.123 257.117 159.123 256.1C159.123 255.083 159.286 254.201 159.613 253.454C159.949 252.698 160.411 252.119 160.999 251.718C161.596 251.317 162.273 251.116 163.029 251.116C163.785 251.116 164.457 251.317 165.045 251.718C165.642 252.119 166.109 252.698 166.445 253.454C166.781 254.201 166.949 255.083 166.949 256.1C166.949 257.117 166.781 258.004 166.445 258.76C166.109 259.507 165.642 260.081 165.045 260.482C164.457 260.883 163.785 261.084 163.029 261.084ZM163.029 260.16C163.598 260.16 164.097 260.001 164.527 259.684C164.965 259.367 165.306 258.905 165.549 258.298C165.791 257.691 165.913 256.959 165.913 256.1C165.913 255.241 165.791 254.509 165.549 253.902C165.306 253.295 164.965 252.833 164.527 252.516C164.097 252.199 163.598 252.04 163.029 252.04C162.459 252.04 161.955 252.199 161.517 252.516C161.087 252.833 160.751 253.295 160.509 253.902C160.266 254.509 160.145 255.241 160.145 256.1C160.145 256.959 160.266 257.691 160.509 258.298C160.751 258.905 161.087 259.367 161.517 259.684C161.955 260.001 162.459 260.16 163.029 260.16Z" fill="#A2A3A5"/>
<path d="M240.45 251.2V261H239.442V252.096H237.132V251.2H240.45ZM245.368 255.218C246.787 255.218 247.818 255.475 248.462 255.988C249.116 256.492 249.442 257.201 249.442 258.116C249.442 258.685 249.307 259.194 249.036 259.642C248.775 260.09 248.378 260.445 247.846 260.706C247.314 260.958 246.661 261.084 245.886 261.084C245.186 261.084 244.519 260.972 243.884 260.748C243.259 260.515 242.755 260.207 242.372 259.824L242.862 259.026C243.189 259.362 243.618 259.637 244.15 259.852C244.682 260.057 245.256 260.16 245.872 260.16C246.684 260.16 247.31 259.978 247.748 259.614C248.196 259.25 248.42 258.765 248.42 258.158C248.42 257.486 248.168 256.977 247.664 256.632C247.17 256.287 246.33 256.114 245.144 256.114H243.058L243.562 251.2H248.924V252.096H244.444L244.108 255.218H245.368Z" fill="#A2A3A5"/>
<path d="M326.834 260.104V261H319.96V260.286L324.034 256.296C324.547 255.792 324.893 255.358 325.07 254.994C325.257 254.621 325.35 254.247 325.35 253.874C325.35 253.295 325.149 252.847 324.748 252.53C324.356 252.203 323.791 252.04 323.054 252.04C321.906 252.04 321.015 252.404 320.38 253.132L319.666 252.516C320.049 252.068 320.534 251.723 321.122 251.48C321.719 251.237 322.391 251.116 323.138 251.116C324.137 251.116 324.925 251.354 325.504 251.83C326.092 252.297 326.386 252.941 326.386 253.762C326.386 254.266 326.274 254.751 326.05 255.218C325.826 255.685 325.401 256.221 324.776 256.828L321.444 260.104H326.834ZM331.95 261.084C331.194 261.084 330.518 260.883 329.92 260.482C329.332 260.081 328.87 259.507 328.534 258.76C328.208 258.004 328.044 257.117 328.044 256.1C328.044 255.083 328.208 254.201 328.534 253.454C328.87 252.698 329.332 252.119 329.92 251.718C330.518 251.317 331.194 251.116 331.95 251.116C332.706 251.116 333.378 251.317 333.966 251.718C334.564 252.119 335.03 252.698 335.366 253.454C335.702 254.201 335.87 255.083 335.87 256.1C335.87 257.117 335.702 258.004 335.366 258.76C335.03 259.507 334.564 260.081 333.966 260.482C333.378 260.883 332.706 261.084 331.95 261.084ZM331.95 260.16C332.52 260.16 333.019 260.001 333.448 259.684C333.887 259.367 334.228 258.905 334.47 258.298C334.713 257.691 334.834 256.959 334.834 256.1C334.834 255.241 334.713 254.509 334.47 253.902C334.228 253.295 333.887 252.833 333.448 252.516C333.019 252.199 332.52 252.04 331.95 252.04C331.381 252.04 330.877 252.199 330.438 252.516C330.009 252.833 329.673 253.295 329.43 253.902C329.188 254.509 329.066 255.241 329.066 256.1C329.066 256.959 329.188 257.691 329.43 258.298C329.673 258.905 330.009 259.367 330.438 259.684C330.877 260.001 331.381 260.16 331.95 260.16Z" fill="#A2A3A5"/>
<path d="M414.477 260.104V261H407.603V260.286L411.677 256.296C412.19 255.792 412.535 255.358 412.713 254.994C412.899 254.621 412.993 254.247 412.993 253.874C412.993 253.295 412.792 252.847 412.391 252.53C411.999 252.203 411.434 252.04 410.697 252.04C409.549 252.04 408.657 252.404 408.023 253.132L407.309 252.516C407.691 252.068 408.177 251.723 408.765 251.48C409.362 251.237 410.034 251.116 410.781 251.116C411.779 251.116 412.568 251.354 413.147 251.83C413.735 252.297 414.029 252.941 414.029 253.762C414.029 254.266 413.917 254.751 413.693 255.218C413.469 255.685 413.044 256.221 412.419 256.828L409.087 260.104H414.477ZM418.318 255.218C419.736 255.218 420.768 255.475 421.412 255.988C422.065 256.492 422.392 257.201 422.392 258.116C422.392 258.685 422.256 259.194 421.986 259.642C421.724 260.09 421.328 260.445 420.796 260.706C420.264 260.958 419.61 261.084 418.836 261.084C418.136 261.084 417.468 260.972 416.834 260.748C416.208 260.515 415.704 260.207 415.322 259.824L415.812 259.026C416.138 259.362 416.568 259.637 417.1 259.852C417.632 260.057 418.206 260.16 418.822 260.16C419.634 260.16 420.259 259.978 420.698 259.614C421.146 259.25 421.37 258.765 421.37 258.158C421.37 257.486 421.118 256.977 420.614 256.632C420.119 256.287 419.279 256.114 418.094 256.114H416.008L416.512 251.2H421.874V252.096H417.394L417.058 255.218H418.318Z" fill="#A2A3A5"/>
<path d="M497.888 255.4C498.915 255.456 499.694 255.736 500.226 256.24C500.767 256.735 501.038 257.383 501.038 258.186C501.038 258.746 500.903 259.245 500.632 259.684C500.361 260.113 499.96 260.454 499.428 260.706C498.896 260.958 498.247 261.084 497.482 261.084C496.773 261.084 496.101 260.972 495.466 260.748C494.841 260.515 494.337 260.207 493.954 259.824L494.444 259.026C494.771 259.362 495.205 259.637 495.746 259.852C496.287 260.057 496.866 260.16 497.482 260.16C498.285 260.16 498.905 259.987 499.344 259.642C499.783 259.287 500.002 258.802 500.002 258.186C500.002 257.579 499.783 257.103 499.344 256.758C498.905 256.413 498.243 256.24 497.356 256.24H496.656V255.498L499.372 252.096H494.36V251.2H500.66V251.914L497.888 255.4ZM506.364 261.084C505.608 261.084 504.932 260.883 504.334 260.482C503.746 260.081 503.284 259.507 502.948 258.76C502.622 258.004 502.458 257.117 502.458 256.1C502.458 255.083 502.622 254.201 502.948 253.454C503.284 252.698 503.746 252.119 504.334 251.718C504.932 251.317 505.608 251.116 506.364 251.116C507.12 251.116 507.792 251.317 508.38 251.718C508.978 252.119 509.444 252.698 509.78 253.454C510.116 254.201 510.284 255.083 510.284 256.1C510.284 257.117 510.116 258.004 509.78 258.76C509.444 259.507 508.978 260.081 508.38 260.482C507.792 260.883 507.12 261.084 506.364 261.084ZM506.364 260.16C506.934 260.16 507.433 260.001 507.862 259.684C508.301 259.367 508.642 258.905 508.884 258.298C509.127 257.691 509.248 256.959 509.248 256.1C509.248 255.241 509.127 254.509 508.884 253.902C508.642 253.295 508.301 252.833 507.862 252.516C507.433 252.199 506.934 252.04 506.364 252.04C505.795 252.04 505.291 252.199 504.852 252.516C504.423 252.833 504.087 253.295 503.844 253.902C503.602 254.509 503.48 255.241 503.48 256.1C503.48 256.959 503.602 257.691 503.844 258.298C504.087 258.905 504.423 259.367 504.852 259.684C505.291 260.001 505.795 260.16 506.364 260.16Z" fill="#A2A3A5"/>
<rect x="260" y="18" width="254" height="243" fill="url(#paint1_linear_19_1752)"/>
<rect width="147" height="243" transform="matrix(-1 0 0 1 143 18)" fill="url(#paint2_linear_19_1752)"/>
<line x1="403.5" y1="101" x2="403.5" y2="217" stroke="#422F8A" stroke-opacity="0.87" stroke-dasharray="4.4 4.4"/>
<g filter="url(#filter0_dd_19_1752)">
<path fill-rule="evenodd" clip-rule="evenodd" d="M406.462 81.1492C404.55 83.6169 401.45 83.6169 399.538 81.1492L395.302 75.9477C394.42 74.8647 393.979 74.3233 393.434 73.9337C392.952 73.5886 392.412 73.3321 391.84 73.1761C391.194 73 390.496 73 389.099 73H370.229C363.543 73 361.118 72.3038 358.674 70.9965C356.229 69.6892 354.311 67.7708 353.003 65.3263C351.696 62.8819 351 60.4572 351 53.7709V24.2291C351 17.5427 351.696 15.1181 353.003 12.6737C354.311 10.2292 356.229 8.3108 358.674 7.0035C361.118 5.69619 363.543 5 370.229 5H436.771C443.457 5 445.882 5.69619 448.326 7.0035C450.771 8.3108 452.689 10.2292 453.997 12.6737C455.304 15.1181 456 17.5427 456 24.2291V53.7709C456 60.4572 455.304 62.8819 453.997 65.3263C452.689 67.7708 450.771 69.6892 448.326 70.9965C445.882 72.3038 443.457 73 436.771 73H420.703C417.909 73 416.513 73 415.221 73.3522C414.077 73.6642 412.997 74.1773 412.032 74.8675C410.944 75.6466 410.062 76.7295 408.297 78.8953L406.462 81.1492Z" fill="white"/>
</g>
<path d="M365.265 24.06V20.86H370.985V35H367.385V24.06H365.265ZM373.514 24.04C373.514 23.36 373.707 22.72 374.094 22.12C374.48 21.52 375.054 21.0333 375.814 20.66C376.587 20.2867 377.52 20.1 378.614 20.1C379.72 20.1 380.654 20.2867 381.414 20.66C382.187 21.0333 382.76 21.52 383.134 22.12C383.52 22.72 383.714 23.36 383.714 24.04C383.714 24.7867 383.54 25.4267 383.194 25.96C382.847 26.48 382.34 26.88 381.674 27.16C383.26 27.8667 384.054 29.06 384.054 30.74C384.054 31.7 383.814 32.5267 383.334 33.22C382.854 33.9 382.2 34.42 381.374 34.78C380.56 35.1267 379.64 35.3 378.614 35.3C377.6 35.3 376.68 35.1267 375.854 34.78C375.027 34.42 374.374 33.9 373.894 33.22C373.414 32.5267 373.174 31.7 373.174 30.74C373.174 29.06 373.967 27.8667 375.554 27.16C374.887 26.88 374.38 26.48 374.034 25.96C373.687 25.4267 373.514 24.7867 373.514 24.04ZM376.874 24.62C376.874 25.1667 377.027 25.5867 377.334 25.88C377.654 26.16 378.08 26.3 378.614 26.3C379.147 26.3 379.567 26.16 379.874 25.88C380.194 25.5867 380.354 25.1667 380.354 24.62C380.354 24.0867 380.194 23.6667 379.874 23.36C379.554 23.0533 379.134 22.9 378.614 22.9C378.094 22.9 377.674 23.0533 377.354 23.36C377.034 23.6667 376.874 24.0867 376.874 24.62ZM376.494 30.54C376.494 31.14 376.68 31.6133 377.054 31.96C377.44 32.3067 377.96 32.48 378.614 32.48C379.267 32.48 379.78 32.3067 380.154 31.96C380.54 31.6133 380.734 31.14 380.734 30.54C380.734 29.94 380.534 29.4733 380.134 29.14C379.747 28.7933 379.24 28.62 378.614 28.62C377.987 28.62 377.474 28.7933 377.074 29.14C376.687 29.4733 376.494 29.94 376.494 30.54ZM388.444 32.88C388.844 33.6533 389.044 34.4933 389.044 35.4C389.044 36.32 388.798 37.08 388.304 37.68C387.824 38.28 387.071 38.58 386.044 38.58V37.32C386.404 37.32 386.664 37.24 386.824 37.08C386.998 36.92 387.084 36.6133 387.084 36.16V35.96H385.624V32.88H388.444ZM390.491 32.28C394.731 29.2533 396.851 26.8467 396.851 25.06C396.851 23.9667 396.377 23.42 395.431 23.42C394.897 23.42 394.504 23.6067 394.251 23.98C394.011 24.3533 393.877 24.9333 393.851 25.72H390.511C390.591 24 391.111 22.7067 392.071 21.84C393.031 20.9733 394.244 20.54 395.711 20.54C397.244 20.54 398.397 20.9267 399.171 21.7C399.957 22.4733 400.351 23.48 400.351 24.72C400.351 26.0933 399.824 27.44 398.771 28.76C397.717 30.0667 396.457 31.1733 394.991 32.08H400.571V34.84H390.491V32.28ZM401.979 27.78C401.979 29.9933 402.425 31.7467 403.319 33.04C404.212 34.3333 405.639 34.98 407.599 34.98C409.545 34.98 410.965 34.3333 411.859 33.04C412.765 31.7467 413.219 29.9933 413.219 27.78C413.219 25.58 412.765 23.84 411.859 22.56C410.965 21.2667 409.545 20.62 407.599 20.62C405.639 20.62 404.212 21.2667 403.319 22.56C402.425 23.84 401.979 25.58 401.979 27.78ZM409.819 27.78C409.819 29.0467 409.665 30.0267 409.359 30.72C409.065 31.4 408.479 31.74 407.599 31.74C406.705 31.74 406.105 31.4 405.799 30.72C405.492 30.0267 405.339 29.0467 405.339 27.78C405.339 26.5267 405.492 25.56 405.799 24.88C406.105 24.2 406.705 23.86 407.599 23.86C408.479 23.86 409.065 24.2 409.359 24.88C409.665 25.5467 409.819 26.5133 409.819 27.78ZM414.85 27.78C414.85 29.9933 415.296 31.7467 416.19 33.04C417.083 34.3333 418.51 34.98 420.47 34.98C422.416 34.98 423.836 34.3333 424.73 33.04C425.636 31.7467 426.09 29.9933 426.09 27.78C426.09 25.58 425.636 23.84 424.73 22.56C423.836 21.2667 422.416 20.62 420.47 20.62C418.51 20.62 417.083 21.2667 416.19 22.56C415.296 23.84 414.85 25.58 414.85 27.78ZM422.69 27.78C422.69 29.0467 422.536 30.0267 422.23 30.72C421.936 31.4 421.35 31.74 420.47 31.74C419.576 31.74 418.976 31.4 418.67 30.72C418.363 30.0267 418.21 29.0467 418.21 27.78C418.21 26.5267 418.363 25.56 418.67 24.88C418.976 24.2 419.576 23.86 420.47 23.86C421.35 23.86 421.936 24.2 422.23 24.88C422.536 25.5467 422.69 26.5133 422.69 27.78ZM430.741 20.62C431.714 20.62 432.508 20.9133 433.121 21.5C433.748 22.0867 434.061 22.9133 434.061 23.98C434.061 25.0467 433.748 25.8733 433.121 26.46C432.508 27.0467 431.714 27.34 430.741 27.34C429.741 27.34 428.928 27.0467 428.301 26.46C427.688 25.8733 427.381 25.0467 427.381 23.98C427.381 22.9133 427.688 22.0867 428.301 21.5C428.928 20.9133 429.741 20.62 430.741 20.62ZM440.441 20.82L432.721 35H429.421L437.141 20.82H440.441ZM429.661 23.98C429.661 24.3933 429.754 24.72 429.941 24.96C430.128 25.1867 430.381 25.3 430.701 25.3C431.034 25.3 431.301 25.1867 431.501 24.96C431.701 24.72 431.801 24.3933 431.801 23.98C431.801 23.5667 431.701 23.2467 431.501 23.02C431.301 22.78 431.034 22.66 430.701 22.66C430.381 22.66 430.128 22.78 429.941 23.02C429.754 23.2467 429.661 23.5667 429.661 23.98ZM439.141 28.46C440.128 28.46 440.928 28.7533 441.541 29.34C442.154 29.9267 442.461 30.7533 442.461 31.82C442.461 32.8867 442.154 33.72 441.541 34.32C440.928 34.9067 440.128 35.2 439.141 35.2C438.168 35.2 437.368 34.9067 436.741 34.32C436.128 33.72 435.821 32.8867 435.821 31.82C435.821 30.7533 436.128 29.9267 436.741 29.34C437.368 28.7533 438.168 28.46 439.141 28.46ZM438.081 31.82C438.081 32.2467 438.174 32.58 438.361 32.82C438.548 33.0467 438.808 33.16 439.141 33.16C439.461 33.16 439.714 33.0467 439.901 32.82C440.101 32.58 440.201 32.2467 440.201 31.82C440.201 31.4067 440.101 31.0867 439.901 30.86C439.714 30.62 439.461 30.5 439.141 30.5C438.808 30.5 438.548 30.62 438.361 30.86C438.174 31.0867 438.081 31.4067 438.081 31.82Z" fill="#68B812"/>
<path d="M384.572 47.9V57H383.649V49.72L380.074 55.843H379.619L376.044 49.759V57H375.121V47.9H375.914L379.866 54.647L383.779 47.9H384.572ZM389.734 50.11C390.627 50.11 391.312 50.3353 391.788 50.786C392.265 51.228 392.503 51.8867 392.503 52.762V57H391.619V55.934C391.411 56.2893 391.104 56.5667 390.696 56.766C390.298 56.9653 389.821 57.065 389.266 57.065C388.504 57.065 387.897 56.883 387.446 56.519C386.996 56.155 386.77 55.674 386.77 55.076C386.77 54.4953 386.978 54.0273 387.394 53.672C387.819 53.3167 388.491 53.139 389.409 53.139H391.58V52.723C391.58 52.1337 391.416 51.6873 391.086 51.384C390.757 51.072 390.276 50.916 389.643 50.916C389.21 50.916 388.794 50.9897 388.395 51.137C387.997 51.2757 387.654 51.4707 387.368 51.722L386.952 51.033C387.299 50.7383 387.715 50.513 388.2 50.357C388.686 50.1923 389.197 50.11 389.734 50.11ZM389.409 56.337C389.929 56.337 390.376 56.22 390.748 55.986C391.121 55.7433 391.398 55.3967 391.58 54.946V53.828H389.435C388.265 53.828 387.68 54.2353 387.68 55.05C387.68 55.4487 387.832 55.765 388.135 55.999C388.439 56.2243 388.863 56.337 389.409 56.337ZM400.629 50.162L397.21 57.819C396.933 58.4603 396.612 58.9153 396.248 59.184C395.884 59.4527 395.447 59.587 394.935 59.587C394.606 59.587 394.298 59.535 394.012 59.431C393.726 59.327 393.479 59.171 393.271 58.963L393.7 58.274C394.047 58.6207 394.463 58.794 394.948 58.794C395.26 58.794 395.525 58.7073 395.741 58.534C395.967 58.3607 396.175 58.066 396.365 57.65L396.664 56.987L393.609 50.162H394.571L397.145 55.973L399.719 50.162H400.629ZM401.589 55.648C401.788 55.648 401.953 55.7173 402.083 55.856C402.213 55.986 402.278 56.1507 402.278 56.35C402.278 56.454 402.26 56.5667 402.226 56.688C402.2 56.8093 402.156 56.948 402.096 57.104L401.55 58.898H400.926L401.368 57.013C401.229 56.9697 401.116 56.8917 401.03 56.779C400.943 56.6577 400.9 56.5147 400.9 56.35C400.9 56.1507 400.965 55.986 401.095 55.856C401.225 55.7173 401.389 55.648 401.589 55.648ZM413.245 56.168V57H406.862V56.337L410.645 52.632C411.122 52.164 411.442 51.761 411.607 51.423C411.78 51.0763 411.867 50.7297 411.867 50.383C411.867 49.8457 411.681 49.4297 411.308 49.135C410.944 48.8317 410.42 48.68 409.735 48.68C408.669 48.68 407.841 49.018 407.252 49.694L406.589 49.122C406.944 48.706 407.395 48.3853 407.941 48.16C408.496 47.9347 409.12 47.822 409.813 47.822C410.74 47.822 411.473 48.043 412.01 48.485C412.556 48.9183 412.829 49.5163 412.829 50.279C412.829 50.747 412.725 51.1977 412.517 51.631C412.309 52.0643 411.915 52.5627 411.334 53.126L408.24 56.168H413.245ZM417.996 57.078C417.294 57.078 416.666 56.8917 416.111 56.519C415.565 56.1463 415.136 55.6133 414.824 54.92C414.521 54.218 414.369 53.3947 414.369 52.45C414.369 51.5053 414.521 50.6863 414.824 49.993C415.136 49.291 415.565 48.7537 416.111 48.381C416.666 48.0083 417.294 47.822 417.996 47.822C418.698 47.822 419.322 48.0083 419.868 48.381C420.423 48.7537 420.856 49.291 421.168 49.993C421.48 50.6863 421.636 51.5053 421.636 52.45C421.636 53.3947 421.48 54.218 421.168 54.92C420.856 55.6133 420.423 56.1463 419.868 56.519C419.322 56.8917 418.698 57.078 417.996 57.078ZM417.996 56.22C418.525 56.22 418.988 56.0727 419.387 55.778C419.794 55.4833 420.111 55.0543 420.336 54.491C420.561 53.9277 420.674 53.2473 420.674 52.45C420.674 51.6527 420.561 50.9723 420.336 50.409C420.111 49.8457 419.794 49.4167 419.387 49.122C418.988 48.8273 418.525 48.68 417.996 48.68C417.467 48.68 416.999 48.8273 416.592 49.122C416.193 49.4167 415.881 49.8457 415.656 50.409C415.431 50.9723 415.318 51.6527 415.318 52.45C415.318 53.2473 415.431 53.9277 415.656 54.491C415.881 55.0543 416.193 55.4833 416.592 55.778C416.999 56.0727 417.467 56.22 417.996 56.22ZM429.165 56.168V57H422.782V56.337L426.565 52.632C427.042 52.164 427.362 51.761 427.527 51.423C427.7 51.0763 427.787 50.7297 427.787 50.383C427.787 49.8457 427.601 49.4297 427.228 49.135C426.864 48.8317 426.34 48.68 425.655 48.68C424.589 48.68 423.761 49.018 423.172 49.694L422.509 49.122C422.864 48.706 423.315 48.3853 423.861 48.16C424.416 47.9347 425.04 47.822 425.733 47.822C426.66 47.822 427.393 48.043 427.93 48.485C428.476 48.9183 428.749 49.5163 428.749 50.279C428.749 50.747 428.645 51.1977 428.437 51.631C428.229 52.0643 427.835 52.5627 427.254 53.126L424.16 56.168H429.165ZM432.862 47.9V57H431.926V48.732H429.781V47.9H432.862Z" fill="#3C3C43" fill-opacity="0.6"/>
<g filter="url(#filter1_dd_19_1752)">
<rect x="393" y="93" width="20" height="20" rx="10" fill="#68B812"/>
<rect x="395" y="95" width="16" height="16" rx="8" stroke="white" stroke-width="4"/>
</g>
</g>
<defs>
<filter id="filter0_dd_19_1752" x="335" y="-3" width="137" height="110" filterUnits="userSpaceOnUse" color-interpolation-filters="sRGB">
<feFlood flood-opacity="0" result="BackgroundImageFix"/>
<feColorMatrix in="SourceAlpha" type="matrix" values="0 0 0 0 0 0 0 0 0 0 0 0 0 0 0 0 0 0 127 0" result="hardAlpha"/>
<feOffset dy="8"/>
<feGaussianBlur stdDeviation="8"/>
<feColorMatrix type="matrix" values="0 0 0 0 0.196487 0 0 0 0 0.196487 0 0 0 0 0.279476 0 0 0 0.06 0"/>
<feBlend mode="multiply" in2="BackgroundImageFix" result="effect1_dropShadow_19_1752"/>
<feColorMatrix in="SourceAlpha" type="matrix" values="0 0 0 0 0 0 0 0 0 0 0 0 0 0 0 0 0 0 127 0" result="hardAlpha"/>
<feOffset dy="8"/>
<feGaussianBlur stdDeviation="4"/>
<feColorMatrix type="matrix" values="0 0 0 0 0.196487 0 0 0 0 0.196487 0 0 0 0 0.279476 0 0 0 0.08 0"/>
<feBlend mode="multiply" in2="effect1_dropShadow_19_1752" result="effect2_dropShadow_19_1752"/>
<feBlend mode="normal" in="SourceGraphic" in2="effect2_dropShadow_19_1752" result="shape"/>
</filter>
<filter id="filter1_dd_19_1752" x="387.667" y="90.3333" width="30.6667" height="30.6667" filterUnits="userSpaceOnUse" color-interpolation-filters="sRGB">
<feFlood flood-opacity="0" result="BackgroundImageFix"/>
<feColorMatrix in="SourceAlpha" type="matrix" values="0 0 0 0 0 0 0 0 0 0 0 0 0 0 0 0 0 0 127 0" result="hardAlpha"/>
<feOffset dy="2.66667"/>
<feGaussianBlur stdDeviation="2.66667"/>
<feColorMatrix type="matrix" values="0 0 0 0 0.196487 0 0 0 0 0.196487 0 0 0 0 0.279476 0 0 0 0.06 0"/>
<feBlend mode="multiply" in2="BackgroundImageFix" result="effect1_dropShadow_19_1752"/>
<feColorMatrix in="SourceAlpha" type="matrix" values="0 0 0 0 0 0 0 0 0 0 0 0 0 0 0 0 0 0 127 0" result="hardAlpha"/>
<feOffset dy="2.66667"/>
<feGaussianBlur stdDeviation="1.33333"/>
<feColorMatrix type="matrix" values="0 0 0 0 0.196487 0 0 0 0 0.196487 0 0 0 0 0.279476 0 0 0 0.06 0"/>
<feBlend mode="multiply" in2="effect1_dropShadow_19_1752" result="effect2_dropShadow_19_1752"/>
<feBlend mode="normal" in="SourceGraphic" in2="effect2_dropShadow_19_1752" result="shape"/>
</filter>
<linearGradient id="paint0_linear_19_1752" x1="452.5" y1="39.5586" x2="452.5" y2="315.334" gradientUnits="userSpaceOnUse">
<stop stop-color="#7459D9" stop-opacity="0.1"/>
<stop offset="0.998978" stop-color="white" stop-opacity="0"/>
</linearGradient>
<linearGradient id="paint1_linear_19_1752" x1="514" y1="138.935" x2="352.01" y2="137.631" gradientUnits="userSpaceOnUse">
<stop stop-color="#F8F8F8"/>
<stop offset="1" stop-color="#F8F8F8" stop-opacity="0"/>
</linearGradient>
<linearGradient id="paint2_linear_19_1752" x1="147" y1="120.935" x2="53.2461" y2="120.498" gradientUnits="userSpaceOnUse">
<stop stop-color="#F8F8F8"/>
<stop offset="1" stop-color="#F8F8F8" stop-opacity="0"/>
</linearGradient>
<clipPath id="clip0_19_1752">
<rect width="514" height="277" fill="white"/>
</clipPath>
<clipPath id="clip1_19_1752">
<rect width="514" height="194" fill="white" transform="translate(0 40)"/>
</clipPath>
</defs>
</svg>
