<svg width="50" height="50" viewBox="0 0 50 50" fill="none" xmlns="http://www.w3.org/2000/svg">
<rect width="50" height="50" rx="25" fill="url(#paint0_linear_19_1749)"/>
<path fill-rule="evenodd" clip-rule="evenodd" d="M34.0211 19.7099C32.2014 16.6491 28.8765 14.7779 25.0757 14.7779C19.3217 14.7779 14.8352 19.2068 14.8352 25C14.8352 30.7932 19.3217 35.6677 25.0757 35.6677C28.8765 35.6677 32.2014 33.4401 34.0211 30.3793H39.2365C37.0812 36.0914 31.5052 40.1515 25.0757 40.1515C16.7643 40.1515 9.84851 33.368 9.84851 25C9.84851 16.632 16.7643 9.84848 25.0757 9.84848C31.5052 9.84848 37.0812 13.9977 39.2365 19.7099H34.0211V19.7099ZM41.8197 23.2175L36.5653 26.9608H29.9733C29.2055 28.9422 27.2836 30.3476 25.0326 30.3476C22.1061 30.3476 19.7337 27.9734 19.7337 25.0446C19.7337 22.1158 22.1061 19.7415 25.0326 19.7415C27.3175 19.7415 29.2645 21.1889 30.0084 23.2175H41.8197Z" fill="white"/>
<defs>
<linearGradient id="paint0_linear_19_1749" x1="0" y1="25" x2="50" y2="25" gradientUnits="userSpaceOnUse">
<stop stop-color="#4776E6"/>
<stop offset="1" stop-color="#8E54E9"/>
</linearGradient>
</defs>
</svg>
