<svg width="50" height="50" viewBox="0 0 50 50" fill="none" xmlns="http://www.w3.org/2000/svg">
<rect width="50" height="50" rx="25" fill="url(#paint0_linear_19_1734)"/>
<path d="M40.6786 28.1023L38.1449 18.428C37.4049 15.6015 35.0204 13.5829 32.2103 13.2362C31.975 13.2072 31.7481 13.3344 31.6542 13.5521L30.665 15.8447C30.255 16.8434 29.2933 17.4883 28.2134 17.4883H21.7866C20.7048 17.4883 19.7417 16.8411 19.3328 15.8395L18.4018 13.5557C18.3114 13.334 18.0837 13.202 17.8458 13.2294C15.0087 13.5561 12.5993 15.5857 11.8552 18.428L9.32149 28.1023C8.79475 30.1119 9.18036 32.2381 10.3783 33.9356C11.9448 36.155 15.2583 36.1087 16.7636 33.8502L18.6771 30.9799C19.3289 30.0022 20.4262 29.4149 21.6013 29.4149H28.3987C29.5738 29.4149 30.6712 30.0022 31.3229 30.9799L33.2365 33.8502C34.7503 36.1217 38.0685 36.1364 39.6217 33.9356C40.8197 32.2381 41.2053 30.1119 40.6786 28.1023ZM17.2479 22.1263C16.1884 22.1263 15.3264 21.2644 15.3264 20.2049C15.3264 19.1453 16.1884 18.2834 17.2479 18.2834C18.3074 18.2834 19.1694 19.1453 19.1694 20.2049C19.1694 21.2644 18.3074 22.1263 17.2479 22.1263ZM22.6148 25.7705H21.6209V26.7644C21.6209 27.0571 21.3836 27.2944 21.0908 27.2944C20.7981 27.2944 20.5608 27.0571 20.5608 26.7644V25.7705H19.5669C19.2742 25.7705 19.0368 25.5332 19.0368 25.2404C19.0368 24.9477 19.2742 24.7104 19.5669 24.7104H20.5608V23.7165C20.5608 23.4238 20.7981 23.1865 21.0908 23.1865C21.3836 23.1865 21.6209 23.4238 21.6209 23.7165V24.7104H22.6148C22.9075 24.7104 23.1448 24.9477 23.1448 25.2404C23.1448 25.5332 22.9075 25.7705 22.6148 25.7705ZM29.0417 27.1619C27.9822 27.1619 27.1203 26.3 27.1203 25.2404C27.1203 24.1809 27.9822 23.319 29.0417 23.319C30.1013 23.319 30.9632 24.1809 30.9632 25.2404C30.9632 26.3 30.1012 27.1619 29.0417 27.1619ZM31.2288 20.7349C30.9361 20.7349 30.6985 20.4976 30.6985 20.2049C30.6985 19.9137 30.9335 19.6748 31.2288 19.6748C31.5216 19.6748 31.7589 19.9121 31.7589 20.2049C31.7589 20.4976 31.5216 20.7349 31.2288 20.7349ZM32.7528 22.2589C32.46 22.2589 32.2224 22.0215 32.2224 21.7288C32.2224 21.4377 32.4575 21.1987 32.7528 21.1987C33.0455 21.1987 33.2828 21.4361 33.2828 21.7288C33.2828 22.0215 33.0456 22.2589 32.7528 22.2589ZM32.7528 19.211C32.46 19.211 32.2224 18.9737 32.2224 18.6809C32.2224 18.3898 32.4575 18.1509 32.7528 18.1509C33.0455 18.1509 33.2828 18.3882 33.2828 18.6809C33.2828 18.9737 33.0456 19.211 32.7528 19.211ZM34.2754 20.7349C33.9827 20.7349 33.7454 20.4976 33.7454 20.2049C33.7454 19.9121 33.9827 19.6748 34.2754 19.6748C34.5682 19.6748 34.8058 19.9121 34.8058 20.2049C34.8058 20.496 34.5707 20.7349 34.2754 20.7349ZM20.3144 15.4392L19.6918 13.912C19.5497 13.5633 19.8062 13.1818 20.1826 13.1818H29.8534C30.2345 13.1818 30.4911 13.5719 30.3401 13.9219L29.6898 15.4293C29.4101 16.0884 28.8231 16.4282 28.2135 16.4282H21.7867C21.1375 16.4282 20.5596 16.0399 20.3144 15.4392Z" fill="white"/>
<defs>
<linearGradient id="paint0_linear_19_1734" x1="0" y1="25" x2="50" y2="25" gradientUnits="userSpaceOnUse">
<stop stop-color="#4776E6"/>
<stop offset="1" stop-color="#8E54E9"/>
</linearGradient>
</defs>
</svg>
